<?xml version="1.0" encoding="utf-8"?>
<!-- Generator: Adobe Illustrator 23.1.0, SVG Export Plug-In . SVG Version: 6.00 Build 0)  -->
<svg version="1.1" id="Layer_1" xmlns="http://www.w3.org/2000/svg" xmlns:xlink="http://www.w3.org/1999/xlink" x="0px" y="0px"
	 viewBox="0 0 500 500" style="enable-background:new 0 0 500 500;" xml:space="preserve">
<style type="text/css">
	.st0{fill:none;stroke:#FFFCC9;stroke-width:11;stroke-linecap:round;stroke-linejoin:round;stroke-miterlimit:10;}
	.st1{enable-background:new    ;}
	.st2{fill:#FFFCC9;}
	.st3{fill:#FFEF2C;}
</style>
<g id="C02">
	<path class="st0" d="M406.2,221.2L406.2,221.2c1.2-6.2,1.9-12.6,1.9-19.2c0-52.3-42.4-94.6-94.6-94.6c-37.2,0-69.4,21.5-84.9,52.7
		c-12.4-9-27.7-14.4-44.3-14.4c-41.7,0-75.4,33.8-75.4,75.4c0,0.4,0,0.9,0,1.3c-3.9-0.9-8-1.3-12.2-1.3c-31.4,0-56.9,25.5-56.9,56.9
		c0,31.2,25.1,56.5,56.3,56.9l0,0H406l0,0c0.1,0,0.1,0,0.2,0c31.4,0,56.9-25.5,56.9-56.9S437.6,221.2,406.2,221.2z"/>
	<g class="st1">
		<path class="st2" d="M242.1,281.2c-8.4,1.8-15.9,2.7-22.7,2.7c-6.7,0-12.1-0.8-16.1-2.5c-4-1.7-7.2-4.3-9.5-8
			c-2.3-3.6-3.9-7.9-4.7-12.8c-0.9-4.9-1.3-11.1-1.3-18.5c0-15.6,2.2-26.4,6.6-32.6c4.4-6.1,12.5-9.2,24.3-9.2
			c6.8,0,14.7,1.1,23.6,3.2l-0.5,13.1c-7.8-1.2-14.3-1.8-19.5-1.8c-5.2,0-8.9,0.7-11.1,2.1c-2.2,1.4-3.9,4-4.9,7.9
			c-1.1,3.9-1.6,10.5-1.6,19.8c0,9.3,1.1,15.8,3.3,19.4c2.2,3.6,6.5,5.4,13.1,5.4c6.5,0,13.5-0.6,20.8-1.7L242.1,281.2z"/>
		<path class="st2" d="M257.1,212.5c5.1-6.5,12.7-9.7,22.7-9.7c10,0,17.6,3.2,22.7,9.7c5.1,6.5,7.7,16.9,7.7,31.3
			s-2.5,24.6-7.6,30.9c-5.1,6.2-12.7,9.3-22.8,9.3c-10.1,0-17.7-3.1-22.8-9.3c-5.1-6.2-7.6-16.5-7.6-30.9S252,219,257.1,212.5z
			 M293.3,243.4c0-9.8-1-16.6-3.1-20.5c-2.1-3.9-5.5-5.9-10.4-5.9c-4.9,0-8.3,2-10.4,5.9c-2.1,4-3.1,10.8-3.1,20.5
			s1.1,16.5,3.2,20.4c2.1,3.9,5.6,5.8,10.4,5.8c4.8,0,8.3-1.9,10.3-5.8C292.3,260,293.3,253.2,293.3,243.4z"/>
	</g>
	<g class="st1">
		<path class="st3" d="M346.6,296.8h-30.7v-11.5l5.8-5.6c1.3-1.2,2.5-2.3,3.6-3.5l2.8-2.8c0.8-0.8,1.5-1.6,2.1-2.5
			c0.6-0.9,1-1.6,1.1-2.1c0.1-0.5,0.2-1,0.2-1.4c0-1.2-0.3-1.9-1-2.2c-0.7-0.3-1.9-0.5-3.6-0.5c-3.2,0-6.2,0.2-8.9,0.7l-1.4,0.3
			l-0.7-11.5c4.7-1.7,9.5-2.5,14.6-2.5c5.1,0,9.1,1.2,11.9,3.5c2.9,2.3,4.3,5.5,4.3,9.6c0,4.1-0.7,7.3-2,9.6
			c-1.3,2.3-3.8,4.8-7.5,7.3l-4.5,3.2h13.8V296.8z"/>
	</g>
	<circle class="st2" cx="77.6" cy="186.1" r="14.7"/>
	<circle class="st2" cx="333.5" cy="375.7" r="14.7"/>
	<circle class="st2" cx="407.5" cy="92.7" r="13.4"/>
	<circle class="st2" cx="169.7" cy="372.1" r="7.7"/>
	<circle class="st2" cx="197.6" cy="49.2" r="5.8"/>
	<circle class="st2" cx="361.6" cy="411.5" r="4.5"/>
	<circle class="st2" cx="52.7" cy="159.9" r="6.4"/>
</g>
</svg>
