<?xml version="1.0" encoding="utf-8"?>
<!-- Generator: Adobe Illustrator 23.1.0, SVG Export Plug-In . SVG Version: 6.00 Build 0)  -->
<svg version="1.1" id="Layer_1" xmlns="http://www.w3.org/2000/svg" xmlns:xlink="http://www.w3.org/1999/xlink" x="0px" y="0px"
	 viewBox="0 0 500 500" style="enable-background:new 0 0 500 500;" xml:space="preserve">
<style type="text/css">
	.st0{fill:none;stroke:#FFFCC9;stroke-width:11;stroke-linecap:round;stroke-linejoin:round;stroke-miterlimit:10;}
	.st1{enable-background:new    ;}
	.st2{fill:#FFFCC9;}
	.st3{clip-path:url(#SVGID_2_);}
	.st4{fill:none;stroke:#FFEF2C;stroke-width:11;stroke-linecap:round;stroke-linejoin:round;stroke-miterlimit:10;}
</style>
<g id="C02_copy">
	<path class="st0" d="M97.5,365.5h-20c-8.8,0-16-7.2-16-16v-99c0-8.8,7.2-16,16-16h20c8.8,0,16,7.2,16,16v99
		C113.5,358.3,106.3,365.5,97.5,365.5z"/>
	<path class="st0" d="M205.8,365.5h-20c-8.8,0-16-7.2-16-16v-149c0-8.8,7.2-16,16-16h20c8.8,0,16,7.2,16,16v149
		C221.8,358.3,214.6,365.5,205.8,365.5z"/>
	<path class="st0" d="M422.5,365.5h-20c-8.8,0-16-7.2-16-16v-259c0-8.8,7.2-16,16-16h20c8.8,0,16,7.2,16,16v259
		C438.5,358.3,431.3,365.5,422.5,365.5z"/>
	<g class="st1">
		<path class="st2" d="M77.4,416l5.4-23.8h9.2l5.4,23.8h-4.8l-0.9-4.3h-8.3l-0.9,4.3H77.4z M86.5,396.2l-2.4,11.3h6.5l-2.4-11.3
			H86.5z"/>
	</g>
	<g class="st1">
		<path class="st2" d="M187.6,392.2h9.3c2.5,0,4.3,0.5,5.6,1.5c1.2,1,1.9,2.6,1.9,4.8c0,1.3-0.2,2.4-0.6,3.2s-1.1,1.5-2,2.1
			c1,0.4,1.8,1.1,2.3,1.9c0.5,0.8,0.8,2,0.8,3.5c0,2.3-0.7,4-2,5.1c-1.4,1.1-3.3,1.7-5.7,1.7h-9.5V392.2z M196.6,396.3h-4.3v5.7h4.3
			c1.8,0,2.7-0.9,2.7-2.8S198.5,396.3,196.6,396.3z M196.8,406h-4.4v5.8h4.4c1,0,1.8-0.2,2.3-0.6c0.5-0.4,0.8-1.2,0.8-2.3
			C199.9,407,198.8,406,196.8,406z"/>
	</g>
	<g class="st1">
		<path class="st2" d="M312.5,415.6c-2.5,0.5-4.7,0.8-6.7,0.8s-3.6-0.2-4.8-0.7c-1.2-0.5-2.1-1.3-2.8-2.3s-1.1-2.3-1.4-3.8
			c-0.3-1.4-0.4-3.3-0.4-5.5c0-4.6,0.6-7.8,1.9-9.6c1.3-1.8,3.7-2.7,7.2-2.7c2,0,4.3,0.3,7,0.9l-0.1,3.8c-2.3-0.3-4.2-0.5-5.8-0.5
			s-2.6,0.2-3.3,0.6c-0.7,0.4-1.1,1.2-1.5,2.3c-0.3,1.1-0.5,3.1-0.5,5.8s0.3,4.7,1,5.7c0.6,1.1,1.9,1.6,3.8,1.6s4-0.2,6.1-0.5
			L312.5,415.6z"/>
	</g>
	<g class="st1">
		<path class="st2" d="M411.7,416h-8v-23.8h8c2.1,0,3.7,0.2,5.1,0.6c1.3,0.4,2.4,1.1,3.1,2.1c0.7,1,1.2,2.2,1.5,3.5
			c0.3,1.3,0.4,3.1,0.4,5.2c0,2.1-0.1,3.9-0.4,5.3s-0.7,2.7-1.5,3.8c-0.7,1.1-1.7,1.9-3.1,2.4C415.5,415.7,413.8,416,411.7,416z
			 M416.8,406.5c0-0.7,0.1-1.8,0.1-3.1s0-2.4-0.1-3.2c-0.1-0.8-0.3-1.5-0.7-2.2c-0.3-0.7-0.9-1.1-1.6-1.3c-0.7-0.2-1.6-0.4-2.8-0.4
			h-3.2v15.4h3.2c1.7,0,3-0.4,3.8-1.3C416.2,409.7,416.6,408.4,416.8,406.5z"/>
	</g>
	<g>
		<g>
			<defs>
				<path id="SVGID_1_" d="M314.2,365.5h-20c-8.8,0-16-7.2-16-16v-219c0-8.8,7.2-16,16-16h20c8.8,0,16,7.2,16,16v219
					C330.2,358.3,323,365.5,314.2,365.5z"/>
			</defs>
			<clipPath id="SVGID_2_">
				<use xlink:href="#SVGID_1_"  style="overflow:visible;"/>
			</clipPath>
			<g class="st3">
				<line class="st4" x1="278.6" y1="71.6" x2="332.4" y2="125.4"/>
				<line class="st4" x1="278.6" y1="107.6" x2="332.4" y2="161.4"/>
				<line class="st4" x1="278.6" y1="143.6" x2="332.4" y2="197.4"/>
				<line class="st4" x1="278.6" y1="179.6" x2="332.4" y2="233.4"/>
				<line class="st4" x1="278.6" y1="215.6" x2="332.4" y2="269.4"/>
				<line class="st4" x1="278.6" y1="251.6" x2="332.4" y2="305.4"/>
				<line class="st4" x1="278.6" y1="287.6" x2="332.4" y2="341.4"/>
				<line class="st4" x1="278.6" y1="323.6" x2="332.4" y2="377.4"/>
				<line class="st4" x1="278.6" y1="359.6" x2="332.4" y2="413.4"/>
				<line class="st4" x1="278.6" y1="395.6" x2="332.4" y2="449.4"/>
			</g>
		</g>
	</g>
	<path class="st0" d="M314.2,365.5h-20c-8.8,0-16-7.2-16-16v-219c0-8.8,7.2-16,16-16h20c8.8,0,16,7.2,16,16v219
		C330.2,358.3,323,365.5,314.2,365.5z"/>
</g>
</svg>
