<?xml version="1.0" encoding="utf-8"?>
<!-- Generator: Adobe Illustrator 23.1.0, SVG Export Plug-In . SVG Version: 6.00 Build 0)  -->
<svg version="1.1" id="Layer_1" xmlns="http://www.w3.org/2000/svg" xmlns:xlink="http://www.w3.org/1999/xlink" x="0px" y="0px"
	 viewBox="0 0 500 500" style="enable-background:new 0 0 500 500;" xml:space="preserve">
<style type="text/css">
	.st0{fill:none;stroke:#FFFCC9;stroke-width:11;stroke-linecap:round;stroke-linejoin:round;stroke-miterlimit:10;}
	.st1{fill:none;stroke:#FFEF2C;stroke-width:11;stroke-linecap:round;stroke-linejoin:round;stroke-miterlimit:10;}
	.st2{fill:none;stroke:#FFFCC9;stroke-width:8;stroke-linecap:round;stroke-linejoin:round;stroke-miterlimit:10;}
	.st3{fill:#55B436;stroke:#FFFCC9;stroke-width:11;stroke-linecap:round;stroke-linejoin:round;stroke-miterlimit:10;}
</style>
<g id="C02_copy_2">
	<g>
		<path class="st0" d="M219.8,215.5c1.2,0.7,2.4,1.6,3.5,2.6l12,12c6.3,6.2,6.3,16.4,0,22.6l-26.2,26.2c-6.2,6.2-16.4,6.2-22.6,0
			l-12-12c-1.1-1.1-1.9-2.2-2.6-3.5"/>
		<g>
			<g>
				<line class="st1" x1="159.3" y1="231.1" x2="139.5" y2="211.3"/>
				<line class="st1" x1="187.6" y1="202.9" x2="167.8" y2="183.1"/>
			</g>
		</g>
		<path class="st0" d="M218,217.7l-43.8,43.8c-6.2,6.2-16.4,6.2-22.6,0l0,0c-6.2-6.2-6.2-16.4,0-22.6l43.8-43.8
			c6.2-6.2,16.4-6.2,22.6,0l0,0C224.2,201.3,224.2,211.5,218,217.7z"/>
	</g>
	<path class="st0" d="M276.5,333.5c0,14.1-11.4,25.5-25.5,25.5s-25.5-11.4-25.5-25.5C225.5,313,251,296,251,296
		S276.5,313,276.5,333.5z"/>
	<g>
		<path class="st0" d="M376.9,214c-11.7,11.7-30.7,11.7-42.5,0c-11.7-11.7-11.7-30.7,0-42.5c18.6-18.6,72.5-30.1,72.5-30.1
			S395.5,195.5,376.9,214z"/>
		<path class="st0" d="M322.4,259.3c-8.7-8.7-8.7-22.7,0-31.3c8.7-8.7,22.7-8.7,31.3,0c13.7,13.7,22.2,53.5,22.2,53.5
			S336.1,273,322.4,259.3z"/>
		<path class="st0" d="M321,195.3c8.7,8.7,8.7,22.7,0,31.3c-8.7,8.7-22.7,8.7-31.3,0c-13.7-13.7-22.2-53.5-22.2-53.5
			S307.3,181.6,321,195.3z"/>
		<line class="st2" x1="300" y1="206.1" x2="342.4" y2="248.5"/>
		<line class="st2" x1="321" y1="226.6" x2="361.5" y2="186.2"/>
	</g>
	<path class="st3" d="M266.1,309.7C252,291.5,226.5,265,226.5,265"/>
	<path class="st3" d="M235.8,309.7c14.1-18.2,79.7-76.7,79.7-76.7"/>
</g>
</svg>
