<?xml version="1.0" encoding="utf-8"?>
<!-- Generator: Adobe Illustrator 23.1.0, SVG Export Plug-In . SVG Version: 6.00 Build 0)  -->
<svg version="1.1" id="Layer_1" xmlns="http://www.w3.org/2000/svg" xmlns:xlink="http://www.w3.org/1999/xlink" x="0px" y="0px"
	 viewBox="0 0 500 500" style="enable-background:new 0 0 500 500;" xml:space="preserve">
<style type="text/css">
	.st0{fill:none;stroke:#FFFCC9;stroke-width:11;stroke-linecap:round;stroke-linejoin:round;stroke-miterlimit:10;}
	.st1{fill:#FFEF2C;}
</style>
<g id="C02_copy_5">
	<path class="st0" d="M380.5,249.5c0,0-50,71-131,71s-131-71-131-71s52-71,131-71S380.5,249.5,380.5,249.5z"/>
	<circle class="st0" cx="249.5" cy="249.5" r="65"/>
	<path class="st1" d="M276,233.1c0,0.3,0,0.6,0,0.9c0,7.2-5.8,13-13,13s-13-5.8-13-13c0-6.6,4.9-12,11.3-12.9
		c-3.5-1.4-7.3-2.1-11.3-2.1c-17.1,0-31,13.9-31,31s13.9,31,31,31s31-13.9,31-31C281,243.7,279.1,237.9,276,233.1z"/>
</g>
</svg>
