<?xml version="1.0" encoding="utf-8"?>
<!-- Generator: Adobe Illustrator 23.1.0, SVG Export Plug-In . SVG Version: 6.00 Build 0)  -->
<svg version="1.1" id="Layer_1" xmlns="http://www.w3.org/2000/svg" xmlns:xlink="http://www.w3.org/1999/xlink" x="0px" y="0px"
	 viewBox="0 0 500 500" style="enable-background:new 0 0 500 500;" xml:space="preserve">
<style type="text/css">
	.st0{fill:#55B436;stroke:#FFFCC9;stroke-width:11.0375;stroke-linecap:round;stroke-linejoin:round;stroke-miterlimit:10;}
	.st1{fill:#55B436;stroke:#FFEF2C;stroke-width:11;stroke-linecap:round;stroke-linejoin:round;stroke-miterlimit:10;}
	.st2{fill:#FFEF2C;}
	.st3{fill:none;stroke:#FFFCC9;stroke-width:11.0375;stroke-linecap:round;stroke-linejoin:round;stroke-miterlimit:10;}
</style>
<g id="C02_copy_8">
	<g>
		<g>
			<g>
				<path class="st0" d="M233.2,163.5c-23,3-50.4-2.6-81.7-33.9l-56.6,56.6c0,0-65.1,1.4-33.2,33.2c31.3,31.3,19.7,37.5,44.1,62.5
					c0.3,0.4,0.7,0.8,1.1,1.2l122.5,122.5c6.4,6.4,17,6.4,23.4,0l0.1-0.1c6-6,6.4-15.5,1.3-22l7.3,7.3c6.8,6.8,18,6.8,24.8,0
					l0.1-0.1c6.5-6.5,6.8-16.8,1-23.7l7.6,7.6c7.2,7.2,19,7.2,26.2,0l0.1-0.1c5.1-5.1,6.6-12.4,4.5-18.8l-10.3-11.3
					c7.6,7.6,20,7.6,27.6,0l0.1-0.1c7.6-7.6,7.6-20,0-27.6L225.9,200.5"/>
				<path class="st1" d="M68,237.1l-24-24c-5.4-5.4-5.4-14.4,0-19.8l84.1-84.1c5.4-5.4,14.4-5.4,19.8,0l24,24
					c5.4,5.4,5.4,14.4,0,19.8l-84.1,84.1C82.4,242.5,73.5,242.5,68,237.1z"/>
				<circle class="st2" cx="77.9" cy="210.9" r="8"/>
			</g>
			<line class="st3" x1="254.1" y1="383.3" x2="190.7" y2="319.9"/>
			<line class="st3" x1="288.1" y1="368.3" x2="224.7" y2="304.9"/>
			<line class="st3" x1="317.2" y1="346.5" x2="246.2" y2="276.5"/>
		</g>
		<path class="st0" d="M246.2,198.5l-42.8,42.9c-6.6,6.6-17.4,6.6-24,0l0,0c-6.6-6.6-6.6-17.4,0-24l53.7-53.7
			c28.1-28.1,50.7,17.4,80.2-12.1"/>
		<path class="st0" d="M236.4,210.9c29.7,29.7,49.8,33.6,70.8,21.6"/>
		<path class="st0" d="M400.2,238.5c-17,15-12,33-57,78"/>
		<circle class="st0" cx="150.1" cy="336.5" r="17"/>
		<circle class="st0" cx="174.2" cy="360.5" r="17"/>
		<circle class="st0" cx="198.2" cy="384.5" r="17"/>
	</g>
	<g>
		<path class="st1" d="M418,237.1l24-24c5.4-5.4,5.4-14.4,0-19.8l-84.1-84.1c-5.4-5.4-14.4-5.4-19.8,0l-24,24
			c-5.4,5.4-5.4,14.4,0,19.8l84.1,84.1C403.6,242.5,412.5,242.5,418,237.1z"/>
		<circle class="st2" cx="408.1" cy="210.9" r="8"/>
	</g>
</g>
</svg>
