<?xml version="1.0" encoding="utf-8"?>
<!-- Generator: Adobe Illustrator 23.1.0, SVG Export Plug-In . SVG Version: 6.00 Build 0)  -->
<svg version="1.1" id="Layer_1" xmlns="http://www.w3.org/2000/svg" xmlns:xlink="http://www.w3.org/1999/xlink" x="0px" y="0px"
	 viewBox="0 0 500 500" style="enable-background:new 0 0 500 500;" xml:space="preserve">
<style type="text/css">
	.st0{fill:none;stroke:#FFFCC9;stroke-width:11;stroke-linecap:round;stroke-linejoin:round;stroke-miterlimit:10;}
	.st1{enable-background:new    ;}
	.st2{fill:#FFEF2C;}
</style>
<g id="C02_copy_3">
	<path class="st0" d="M346.7,207.1c5.3-3.8,8.8-10,8.8-17.1c0-11.6-9.4-21-21-21c-4.6,0-8.8,1.5-12.2,4
		c-18.9-17.7-44.3-28.5-72.3-28.5c-13.2,0-25.8,2.4-37.5,6.8c-4.9-18.3-21.6-31.8-41.5-31.8c-23.7,0-43,19.3-43,43
		c0,18.3,11.4,33.8,27.4,40.1c-7.3,14.4-11.4,30.7-11.4,47.9c0,58.5,47.5,106,106,106s106-47.5,106-106
		C356,235,352.7,220.3,346.7,207.1z"/>
	<g>
		<g class="st1">
			<path class="st2" d="M194.4,265.5V227h13.3l6.8,28.1l6.8-28.1h13.3v38.5h-7.8v-29.8h-0.8l-7.5,28.1h-7.8l-7.5-28.1h-0.8v29.8
				H194.4z"/>
			<path class="st2" d="M263.8,227h8.2l-8.9,38.5h-14.4l-8.9-38.5h8.2l6.7,31.7h2.5L263.8,227z"/>
			<path class="st2" d="M303.2,261.4c-2.4,3.2-6.5,4.8-12.4,4.8s-10-1.6-12.4-4.8c-2.4-3.2-3.6-8.2-3.6-15c0-6.8,1.2-11.8,3.6-15.1
				c2.4-3.3,6.5-5,12.4-5s10,1.7,12.4,5c2.4,3.3,3.6,8.3,3.6,15.1C306.7,253.2,305.5,258.2,303.2,261.4z M284.5,256.4
				c1.1,2,3.2,3,6.3,3s5.1-1,6.3-3s1.7-5.3,1.7-10c0-4.7-0.6-8-1.7-10.2c-1.1-2.1-3.2-3.2-6.2-3.2c-3,0-5.1,1.1-6.2,3.2
				c-1.1,2.1-1.7,5.5-1.7,10.2C282.9,251.1,283.4,254.4,284.5,256.4z"/>
		</g>
	</g>
	<path class="st0" d="M321,284.3c-18.4,39-64.9,55.6-103.8,37.3"/>
</g>
</svg>
