<?xml version="1.0" encoding="utf-8"?>
<!-- Generator: Adobe Illustrator 23.1.0, SVG Export Plug-In . SVG Version: 6.00 Build 0)  -->
<svg version="1.1" id="Layer_1" xmlns="http://www.w3.org/2000/svg" xmlns:xlink="http://www.w3.org/1999/xlink" x="0px" y="0px"
	 viewBox="0 0 500 500" style="enable-background:new 0 0 500 500;" xml:space="preserve">
<style type="text/css">
	.st0{enable-background:new    ;}
	.st1{fill:none;stroke:#FFFCC9;stroke-width:11.0375;stroke-linecap:round;stroke-linejoin:round;stroke-miterlimit:10;}
	.st2{fill:#FFEF2C;}
</style>
<g id="C02_copy_9">
	<g>
		<g class="st0">
			<g>
				<path class="st1" d="M157.4,237.9c0.4,0.3,0.8,0.6,1.2,0.9c0.4,0.3,0.7,0.7,1.1,1.1c0.3,0.4,0.7,0.8,1,1.3s0.6,0.9,0.9,1.4
					L229.4,370c1.1,2.1,1.6,4.2,1.6,5.9c0,1.8-0.5,3.2-1.4,4.3c-0.9,1.1-2.1,1.7-3.6,1.7s-3.2-0.5-5-1.8L61.6,263.8
					c-1.6-1.1-2.8-2.7-3.7-4.4s-1.4-3.5-1.6-5.2s0-3.3,0.7-4.5c0.6-1.2,1.6-2,3.1-2.2l92.6-11c0.4,0,0.8,0,1.2,0
					c0.4,0,0.8,0.1,1.2,0.2c0.4,0.1,0.8,0.3,1.2,0.5C156.6,237.4,157,237.6,157.4,237.9z"/>
			</g>
			<path class="st1" d="M443.7,236.6L443.7,236.6L443.7,236.6c0-0.1,0-0.2,0-0.2v-0.1v-0.1v-0.1V236v-0.1v-0.1v-0.1v-0.1v-0.1v-0.1
				v-0.1v-0.1v-0.1V235v-0.1v-0.1v-0.1v-0.1v-0.1v-0.1v-0.1v-0.1v-0.1V234v-0.1v-0.1v-0.1l0,0l0,0v-0.1c0,0,0-0.1-0.1-0.1
				c0,0,0-0.1-0.1-0.1c0,0,0-0.1-0.1-0.1c0-0.1-0.1-0.2-0.1-0.2c0-0.1-0.1-0.2-0.1-0.2c0-0.1-0.1-0.2-0.1-0.2c0-0.1-0.1-0.2-0.1-0.2
				l0,0l0,0l0,0l0,0l-56.3-105.3c-0.1-0.1-0.2-0.3-0.2-0.4c-0.1-0.1-0.2-0.3-0.3-0.4s-0.1-0.2-0.2-0.3l0,0l0,0l0,0
				c-0.1-0.1-0.2-0.3-0.3-0.4c0-0.1-0.1-0.1-0.1-0.2c-0.1-0.1-0.1-0.1-0.2-0.2c-0.1-0.1-0.1-0.1-0.2-0.2c0,0,0,0-0.1-0.1l0,0l0,0
				l-0.1-0.1l-0.1-0.1l-0.1-0.1l-0.1-0.1l-0.1-0.1l-0.1-0.1l-0.1-0.1l-0.1-0.1l-0.1-0.1l0,0l0,0l0,0c0,0-0.1,0-0.1-0.1
				c0,0-0.1,0-0.1-0.1c0,0-0.1,0-0.1-0.1c0,0-0.1,0-0.1-0.1c0,0-0.1,0-0.1-0.1c0,0-0.1,0-0.1-0.1c0,0-0.1,0-0.1-0.1
				c0,0-0.1,0-0.1-0.1c0,0,0,0-0.1,0h-0.1h-0.1H383l0,0l0,0l0,0l0,0h-0.1h-0.1h-0.1h-0.1h-0.1h-0.1h-0.1h-0.1h-0.1H382h-0.1h-0.1
				h-0.1l0,0l0,0l0,0l0,0h-0.1h-0.1c0,0,0,0-0.1,0h-0.1h-0.1h-0.1c0,0,0,0-0.1,0s-0.1,0-0.1,0h-0.1h-0.1h-0.1h-0.1h-0.1h-0.1l0,0
				l0,0l0,0c0,0,0,0-0.1,0h-0.1H380h-0.1h-0.1h-0.1h-0.1h-0.1h-0.1h-0.1h-0.1h-0.1H379h-0.1l0,0l0,0l0,0l0,0h-0.1h-0.1h-0.1h-0.1
				h-0.1h-0.1h-0.1h-0.1H378c0,0,0,0-0.1,0c0,0,0,0-0.1,0c0,0,0,0-0.1,0c0,0,0,0-0.1,0l-89.2,15.3l0,0l0,0l0,0l0,0h-0.1h-0.1l0,0
				l0,0l0,0h-0.1H288c0,0,0,0-0.1,0l0,0l0,0l0,0h-0.1h-0.1l0,0l0,0l0,0c0,0-0.1,0-0.1,0.1l0,0l0,0l0,0l0,0L58.7,247.9
				c0.1,0,0.2-0.1,0.3-0.1l0,0c0.1,0,0.2-0.1,0.3-0.1l0,0c0.1,0,0.2-0.1,0.3-0.1l0,0c0.1,0,0.2,0,0.3-0.1l92.6-11c0.4,0,0.8,0,1.2,0
				l0,0c0.4,0,0.8,0.1,1.2,0.2l0,0c0.4,0.1,0.8,0.3,1.2,0.5l0,0c0.4,0.2,0.8,0.4,1.2,0.7c0.4,0.3,0.8,0.6,1.2,0.9l0,0
				c0.4,0.3,0.7,0.7,1.1,1.1l0,0c0.3,0.4,0.7,0.8,1,1.3l0,0c0.3,0.4,0.6,0.9,0.9,1.4L229.3,370c0.3,0.6,0.6,1.2,0.8,1.8l0,0
				c0.2,0.6,0.4,1.2,0.5,1.8c0.1,0.6,0.2,1.1,0.2,1.7l0,0c0,0.5,0,1,0,1.5l0,0c-0.1,0.5-0.1,0.9-0.3,1.4l0,0
				c-0.1,0.4-0.3,0.8-0.5,1.2l0,0c-0.2,0.4-0.4,0.7-0.7,1l0,0c-0.3,0.3-0.6,0.5-0.9,0.8L441,241.9c0.1-0.1,0.2-0.1,0.3-0.2
				c0.1-0.1,0.2-0.1,0.3-0.2c0.1-0.1,0.2-0.2,0.3-0.2c0,0,0,0,0.1-0.1l0,0l0.1-0.1l0.1-0.1l0.1-0.1l0.1-0.1l0.1-0.1
				c0,0,0-0.1,0.1-0.1c0.1,0,0-0.1,0.1-0.1c0,0,0-0.1,0.1-0.1l0,0l0,0l0,0c0,0,0-0.1,0.1-0.1c0,0,0-0.1,0.1-0.1c0,0,0-0.1,0.1-0.1
				c0,0,0-0.1,0.1-0.1c0,0,0-0.1,0.1-0.1v-0.1v-0.1v-0.1v-0.1v-0.1v-0.1c0,0,0,0,0-0.1l0,0l0,0v-0.1V239v-0.1v-0.1v-0.1v-0.1v-0.1
				v-0.1v-0.1v-0.1v-0.1V238v-0.1v-0.1c0,0,0,0,0-0.1l0,0l0,0l0,0v-0.1v-0.1v-0.1v-0.1v-0.1v-0.1V237v-0.1v-0.1v-0.1v-0.1v-0.1v-0.1
				v-0.1v-0.1C443.7,236.7,443.7,236.7,443.7,236.6C443.7,236.7,443.7,236.6,443.7,236.6L443.7,236.6z"/>
		</g>
		<line class="st1" x1="159.7" y1="235.6" x2="386.2" y2="123.2"/>
	</g>
	<path class="st2" d="M288.4,215c-6.4,3.5-10.1,7.5-11.2,11.9c-1.1,4.4,0.3,10.1,4.1,17.1l-5,2.8l6,8.6l4.4-2.5l3.9,5.5l-4.4,2.5
		l6,8.6l5.2-2.9c4.9,5.3,9.9,8.4,14.7,9.4c4.9,1,10.1,0,15.6-3c5.5-3.1,10.5-6.7,15.1-11l-6.6-9c-4.8,3.7-8.9,6.4-12.2,8.3
		c-3.3,1.8-6.1,2.7-8.3,2.6c-2.2-0.1-4.5-1.3-6.9-3.5l18.6-10.3l-6-8.6l-19.6,10.9l-3.9-5.5l19.6-10.9l-6-8.6l-18.9,10.5
		c-1.5-3.5-2-6.2-1.2-8.2c0.7-2,3-4,6.7-6c3.7-2.1,8.2-4,13.5-5.9l-6-9.2C298.3,210.5,292.6,212.7,288.4,215"/>
</g>
</svg>
