<?xml version="1.0" encoding="utf-8"?>
<!-- Generator: Adobe Illustrator 23.1.0, SVG Export Plug-In . SVG Version: 6.00 Build 0)  -->
<svg version="1.1" id="Layer_1" xmlns="http://www.w3.org/2000/svg" xmlns:xlink="http://www.w3.org/1999/xlink" x="0px" y="0px"
	 viewBox="0 0 500 500" style="enable-background:new 0 0 500 500;" xml:space="preserve">
<style type="text/css">
	.st0{fill:none;stroke:#FFFCC9;stroke-width:11.0375;stroke-linecap:round;stroke-linejoin:round;stroke-miterlimit:10;}
	.st1{fill:none;stroke:#FFEF2C;stroke-width:11;stroke-linecap:round;stroke-linejoin:round;stroke-miterlimit:10;}
	.st2{fill:#FFEF2C;}
</style>
<g id="C02_copy_6">
	<g>
		<path class="st0" d="M189.9,350.7c17.2,3.7,22.3,10.2,47.3,10.5c0.5,0.1,1.1,0.1,1.7,0.1h74.3c9.1,0,16.6-7.5,16.6-16.6v-0.1
			c0-8.5-6.4-15.5-14.7-16.5h10.3c9.7,0,17.6-7.9,17.6-17.5v-0.1c0-9.2-7.1-16.7-16.1-17.5h10.7c10.2,0,18.5-8.3,18.5-18.5v-0.1
			c0-7.2-4.1-13.4-10.2-16.5h3.8c10.7,0,19.5-8.8,19.5-19.5v-0.1c0-10.9-8.7-19.6-19.4-19.6h-85.2c8.5-19.7,13.2-43.7,13.2-70.5
			c0-48-44-44-44-7c0,26.8-22.6,56.8-46.1,71.2"/>
		<path class="st1" d="M178.8,356.2h-34c-7.7,0-14-6.3-14-14v-119c0-7.7,6.3-14,14-14h34c7.7,0,14,6.3,14,14v119
			C192.8,349.9,186.4,356.2,178.8,356.2z"/>
		<circle class="st2" cx="167.2" cy="330.7" r="8"/>
	</g>
</g>
</svg>
