<?xml version="1.0" encoding="utf-8"?>
<!-- Generator: Adobe Illustrator 23.1.0, SVG Export Plug-In . SVG Version: 6.00 Build 0)  -->
<svg version="1.1" id="Layer_1" xmlns="http://www.w3.org/2000/svg" xmlns:xlink="http://www.w3.org/1999/xlink" x="0px" y="0px"
	 viewBox="0 0 500 500" style="enable-background:new 0 0 500 500;" xml:space="preserve">
<style type="text/css">
	.st0{fill:none;stroke:#FFEF2C;stroke-width:11;stroke-linecap:round;stroke-linejoin:round;stroke-miterlimit:10;}
	.st1{fill:none;stroke:#FFFCC9;stroke-width:11;stroke-linecap:round;stroke-linejoin:round;stroke-miterlimit:10;}
</style>
<g id="C02_copy_7">
	<path class="st0" d="M402.5,250.5c0,82.8-67.2,150-150,150"/>
	<path class="st0" d="M102.5,250.5c0-82.8,67.2-150,150-150"/>
	<circle class="st1" cx="252.5" cy="249.5" r="112"/>
	<line class="st1" x1="263.5" y1="238.5" x2="313.3" y2="188.7"/>
	<line class="st1" x1="219.3" y1="216.3" x2="241.5" y2="238.5"/>
	<circle class="st1" cx="252.5" cy="249.5" r="15.5"/>
	<g>
		<line class="st1" x1="253.5" y1="168.5" x2="253.5" y2="182.5"/>
		<line class="st1" x1="253.5" y1="318.5" x2="253.5" y2="332.5"/>
		<line class="st1" x1="335.5" y1="250.5" x2="321.5" y2="250.5"/>
		<line class="st1" x1="185.5" y1="250.5" x2="171.5" y2="250.5"/>
	</g>
	<polyline class="st0" points="86.3,239 102.5,267 118.7,239 	"/>
	<polyline class="st0" points="418.7,262 402.5,234 386.3,262 	"/>
</g>
</svg>
