<?xml version="1.0" encoding="UTF-8"?>
<svg width="1013px" height="844px" viewBox="0 0 1013 844" version="1.1" xmlns="http://www.w3.org/2000/svg" xmlns:xlink="http://www.w3.org/1999/xlink">
    <!-- Generator: Sketch 53.2 (72643) - https://sketchapp.com -->
    <title>Path</title>
    <desc>Created with Sketch.</desc>
    <g id="Page-1" stroke="none" stroke-width="1" fill="none" fill-rule="evenodd">
        <g id="Desktop-HD" transform="translate(-324.000000, 0.000000)" fill-rule="nonzero" stroke="#48A52A" stroke-width="2">
            <path d="M1206.97301,276 L746.973011,276 L914.245739,444 L1123.33665,444 L1123.33665,521 C1123.33665,563 1088.48816,598 1046.66998,598 L614.548769,598 C572.730587,598 537.882102,563 537.882102,521 L537.882102,213 C537.882102,171 572.730587,136 614.548769,136 L1116.36695,136 L1283.63968,-32 L614.548769,-32 C480.730587,-32 370.609375,78.6 370.609375,213 L370.609375,521 C370.609375,655.4 480.730587,766 614.548769,766 L1046.66998,766 C1180.48816,766 1290.60937,655.4 1290.60937,521 L1290.60937,360 C1290.60937,313.8 1252.97301,276 1206.97301,276 Z" id="Path" transform="translate(830.609375, 367.000000) rotate(-25.000000) translate(-830.609375, -367.000000) "></path>
        </g>
    </g>
</svg>