<?xml version="1.0" encoding="utf-8"?>
<!-- Generator: Adobe Illustrator 23.1.0, SVG Export Plug-In . SVG Version: 6.00 Build 0)  -->
<svg version="1.1" id="Layer_1" xmlns="http://www.w3.org/2000/svg" xmlns:xlink="http://www.w3.org/1999/xlink" x="0px" y="0px"
	 viewBox="0 0 665.5 188" style="enable-background:new 0 0 665.5 188;" xml:space="preserve">
<style type="text/css">
	.st0{fill:none;}
	.st1{fill:#3E3F3D;}
	.st2{fill:#4FB22F;}
	.st3{display:none;}
	.st4{display:inline;fill:#3E3F3D;}
	.st5{display:inline;}
	.st6{fill:#C2E5B5;}
	.st7{display:inline;fill:#C2E5B5;}
</style>
<g id="Dark">
	<g>
		<path class="st0" d="M414,105.3v-22c0-3-2.5-5.5-5.5-5.5h-31c-3,0-5.5,2.5-5.5,5.5v22c0,3,2.5,5.5,5.5,5.5h31
			C411.5,110.8,414,108.3,414,105.3z"/>
		<path class="st0" d="M126,83.3c0-3-2.5-5.5-5.5-5.5H84v11h36.5C123.5,88.8,126,86.3,126,83.3z"/>
		<path class="st1" d="M84,100.8h14.9l17.4,22h15.3l-17.4-22h6.3c9.6,0,17.5-7.9,17.5-17.5s-7.9-17.5-17.5-17.5H78c-3.3,0-6,2.7-6,6
			v51h12V100.8z M84,77.8h36.5c3,0,5.5,2.5,5.5,5.5s-2.5,5.5-5.5,5.5H84V77.8z"/>
		<path class="st1" d="M342,104l-44.2-36.8c-1.8-1.5-4.3-1.8-6.4-0.8s-3.5,3.1-3.5,5.4v51h12V84.6l44.2,36.8
			c1.1,0.9,2.5,1.4,3.8,1.4c0.9,0,1.7-0.2,2.5-0.6c2.1-1,3.5-3.1,3.5-5.4v-51h-12V104H342z"/>
		<path class="st1" d="M426,105.3v-22c0-9.7-7.9-17.5-17.5-17.5h-31c-9.7,0-17.5,7.9-17.5,17.5v22c0,9.7,7.9,17.5,17.5,17.5h31
			C418.1,122.8,426,114.9,426,105.3z M372,105.3v-22c0-3,2.5-5.5,5.5-5.5h31c3,0,5.5,2.5,5.5,5.5v22c0,3-2.5,5.5-5.5,5.5h-31
			C374.5,110.8,372,108.3,372,105.3z"/>
		<polygon class="st1" points="528,77.8 555,77.8 555,122.8 567,122.8 567,77.8 594,77.8 594,65.8 528,65.8 		"/>
		<path class="st2" d="M462,94.4l-22.3-38.6h-13.9l30.9,53.6c1.1,1.9,3.1,3,5.2,3s4.1-1.1,5.2-3L498,55.8h-13.9L462,94.4z"/>
		<path class="st2" d="M506,94.2l22.3,38.6h13.9l-30.9-53.6c-1.1-1.9-3.1-3-5.2-3s-4.1,1.1-5.2,3l-31,53.6h13.9L506,94.2z"/>
		<path class="st2" d="M485,12c30.2,0,56.5,16.8,70.1,41.5h13.4C553.9,21.9,521.9,0,485,0s-68.9,21.9-83.5,53.5h13.4
			C428.5,28.8,454.8,12,485,12z"/>
		<path class="st2" d="M485,176c-30.2,0-56.5-16.8-70.1-41.5h-13.4c14.6,31.6,46.6,53.5,83.5,53.5s68.9-21.9,83.5-53.5h-13.4
			C541.5,159.3,515.2,176,485,176z"/>
		<path class="st2" d="M150,65.8c-3.3,0-6,2.7-6,6v6h12h41.5l12-12H150z"/>
		<path class="st1" d="M156,110.8v-11h31v-12h-31h-12v12v17c0,3.3,2.7,6,6,6h59.5l-12-12H156z"/>
		<path class="st1" d="M228,110.8v-11h31v-12h-31h-12v12v17c0,3.3,2.7,6,6,6h59.5l-12-12H228z"/>
		<path class="st2" d="M222,65.8c-3.3,0-6,2.7-6,6v6h12h23h18.5l12-12H222z"/>
		<path class="st2" d="M606,65.8c-3.3,0-6,2.7-6,6v6h12h17h24.5l12-12H606z"/>
		<path class="st1" d="M612,110.8v-11h31v-12h-31h-12v12v17c0,3.3,2.7,6,6,6h59.5l-12-12H612z"/>
	</g>
	<path class="st1" d="M60,87.8H27l12,12h15v5.5c0,3-2.5,5.5-5.5,5.5h-31c-3,0-5.5-2.5-5.5-5.5v-22c0-3,2.5-5.5,5.5-5.5h36l12-12h-48
		C7.9,65.8,0,73.7,0,83.3v22c0,9.6,7.9,17.5,17.5,17.5h31c9.6,0,17.5-7.9,17.5-17.5V93.8C66,90.5,63.3,87.8,60,87.8z"/>
</g>
<g id="Light_1_" class="st3">
	<rect x="-140" y="-151.2" class="st4" width="955" height="500"/>
	<g class="st5">
		<path class="st0" d="M414,105.3v-22c0-3-2.5-5.5-5.5-5.5h-31c-3,0-5.5,2.5-5.5,5.5v22c0,3,2.5,5.5,5.5,5.5h31
			C411.5,110.8,414,108.3,414,105.3z"/>
		<path class="st0" d="M126,83.3c0-3-2.5-5.5-5.5-5.5H84v11h36.5C123.5,88.8,126,86.3,126,83.3z"/>
		<path class="st6" d="M84,100.8h14.9l17.4,22h15.3l-17.4-22h6.3c9.6,0,17.5-7.9,17.5-17.5s-7.9-17.5-17.5-17.5H78c-3.3,0-6,2.7-6,6
			v51h12V100.8z M84,77.8h36.5c3,0,5.5,2.5,5.5,5.5s-2.5,5.5-5.5,5.5H84V77.8z"/>
		<path class="st6" d="M342,104l-44.2-36.8c-1.8-1.5-4.3-1.8-6.4-0.8s-3.5,3.1-3.5,5.4v51h12V84.6l44.2,36.8
			c1.1,0.9,2.5,1.4,3.8,1.4c0.9,0,1.7-0.2,2.5-0.6c2.1-1,3.5-3.1,3.5-5.4v-51h-12V104H342z"/>
		<path class="st6" d="M426,105.3v-22c0-9.7-7.9-17.5-17.5-17.5h-31c-9.7,0-17.5,7.9-17.5,17.5v22c0,9.7,7.9,17.5,17.5,17.5h31
			C418.1,122.8,426,114.9,426,105.3z M372,105.3v-22c0-3,2.5-5.5,5.5-5.5h31c3,0,5.5,2.5,5.5,5.5v22c0,3-2.5,5.5-5.5,5.5h-31
			C374.5,110.8,372,108.3,372,105.3z"/>
		<polygon class="st6" points="528,77.8 555,77.8 555,122.8 567,122.8 567,77.8 594,77.8 594,65.8 528,65.8 		"/>
		<path class="st2" d="M462,94.4l-22.3-38.6h-13.9l30.9,53.6c1.1,1.9,3.1,3,5.2,3s4.1-1.1,5.2-3L498,55.8h-13.9L462,94.4z"/>
		<path class="st2" d="M506,94.2l22.3,38.6h13.9l-30.9-53.6c-1.1-1.9-3.1-3-5.2-3s-4.1,1.1-5.2,3l-31,53.6h13.9L506,94.2z"/>
		<path class="st2" d="M485,12c30.2,0,56.5,16.8,70.1,41.5h13.4C553.9,21.9,521.9,0,485,0s-68.9,21.9-83.5,53.5h13.4
			C428.5,28.8,454.8,12,485,12z"/>
		<path class="st2" d="M485,176c-30.2,0-56.5-16.8-70.1-41.5h-13.4c14.6,31.6,46.6,53.5,83.5,53.5s68.9-21.9,83.5-53.5h-13.4
			C541.5,159.3,515.2,176,485,176z"/>
		<path class="st2" d="M150,65.8c-3.3,0-6,2.7-6,6v6h12h41.5l12-12H150z"/>
		<path class="st6" d="M156,110.8v-11h31v-12h-31h-12v12v17c0,3.3,2.7,6,6,6h59.5l-12-12H156z"/>
		<path class="st6" d="M228,110.8v-11h31v-12h-31h-12v12v17c0,3.3,2.7,6,6,6h59.5l-12-12H228z"/>
		<path class="st2" d="M222,65.8c-3.3,0-6,2.7-6,6v6h12h23h18.5l12-12H222z"/>
		<path class="st2" d="M606,65.8c-3.3,0-6,2.7-6,6v6h12h17h24.5l12-12H606z"/>
		<path class="st6" d="M612,110.8v-11h31v-12h-31h-12v12v17c0,3.3,2.7,6,6,6h59.5l-12-12H612z"/>
	</g>
	<path class="st7" d="M60,87.8H27l12,12h15v5.5c0,3-2.5,5.5-5.5,5.5h-31c-3,0-5.5-2.5-5.5-5.5v-22c0-3,2.5-5.5,5.5-5.5h36l12-12h-48
		C7.9,65.8,0,73.7,0,83.3v22c0,9.6,7.9,17.5,17.5,17.5h31c9.6,0,17.5-7.9,17.5-17.5V93.8C66,90.5,63.3,87.8,60,87.8z"/>
</g>
</svg>
