<svg version="1.1" id="Layer_1" xmlns="http://www.w3.org/2000/svg" x="0" y="0" viewBox="0 0 240 208" xml:space="preserve"><style>.st2{fill:none;stroke:#13260b;stroke-width:1.5;stroke-linecap:round;stroke-linejoin:round;stroke-miterlimit:10}.st4{fill:#bbe1af}.st8{opacity:.36;fill:none;stroke:#13260b;stroke-width:1.5;stroke-linecap:round;stroke-linejoin:round;stroke-miterlimit:10}</style><path d="M198.3 158.4s-6.6-24.4 1.9-36.1c8.5-11.7 7.3-32.7-17.7-40.1S167.1 52.4 148.1 41s-42.5-5.8-54 17.7-38.5 5.6-50 23.4c-9.7 15.1 11.8 22.6 7.9 34.2s-13.8 30.4-6.3 42h152.6z" opacity=".22" fill="#55b436"/><path fill="#fff" d="M60.3 84.1H84v12.8H60.3z"/><path class="st2" d="M36.5 158.4H35M193.5 158.4h7M40.9 158.4H187.8"/><path d="M177 116.3l.3-5.9c.1-1.2-.9-2.2-2.1-2.2H61.6c-1.2 0-2.1 1-2.1 2.2l.3 5.9.1 2.8.1 1.7c0 .5.1.9.3 1.3.7 1.9 2.5 3.3 4.6 3.3h107c2.1 0 3.9-1.4 4.6-3.3.1-.4.2-.9.3-1.3l.1-1.7.1-2.8zm3.5-29.8v33.4c0 4.9-4 8.9-8.9 8.9H65.4c-4.9 0-8.9-4-8.9-8.9V86.5c0-3.9 3.1-7 7-7h110c3.9 0 7 3.1 7 7zM78.4 91.8v-3.2c0-1.2-1-2.2-2.2-2.2H64.6c-1.2 0-2.2 1-2.2 2.2v3.2c0 1.2 1 2.2 2.2 2.2h11.5c1.3 0 2.3-1 2.3-2.2z" fill="#4b992b"/><path class="st4" d="M175.2 108.2c1.2 0 2.1 1 2.1 2.2l-.3 5.9H59.8l-.3-5.9c-.1-1.2.9-2.2 2.1-2.2h113.6z"/><path d="M177.3 110.4l-.1 1.2c-.2-.9-1-1.6-2-1.6H61.6c-1 0-1.8.7-2 1.6l-.1-1.2c-.1-1.2.9-2.2 2.1-2.2h113.6c1.2 0 2.2 1 2.1 2.2z" opacity=".61" fill="#fff"/><path class="st4" d="M177 116.3l-.1 2.8H60l-.2-2.8h.2zM176.9 119.1l-.1 1.7c0 .5-.1.9-.3 1.3H60.3c-.1-.4-.2-.9-.3-1.3l-.1-1.7h117zM60.3 122.1h116.2c-.7 1.9-2.5 3.3-4.6 3.3h-107c-2.1-.1-3.9-1.4-4.6-3.3z"/><path d="M180.5 86.5v3c0-3.9-3.1-7-7-7h-110c-3.9 0-7 3.1-7 7v-3c0-3.9 3.1-7 7-7h110c3.9 0 7 3.1 7 7z" opacity=".22" fill="#fff"/><path class="st2" d="M171.7 128.7H65.4c-4.9 0-8.9-4-8.9-8.9V86.5c0-3.9 3.1-7 7-7h110c3.9 0 7 3.1 7 7v33.4c0 4.8-3.9 8.8-8.8 8.8z"/><path class="st2" d="M122.5 108.2H61.6c-1.2 0-2.1 1-2.1 2.2l.3 5.9.1 2.8.1 1.7c0 .5.1.9.3 1.3.7 1.9 2.5 3.3 4.6 3.3h57.6"/><path class="st2" d="M122.5 108.2H175.2c1.2 0 2.1 1 2.1 2.2l-.3 5.9-.1 2.8-.1 1.7c0 .5-.1.9-.3 1.3-.7 1.9-2.5 3.3-4.6 3.3h-49.4M60 116.3h117.1M59.9 119.1h117M60.3 122.1h116.2"/><path fill="none" stroke="#fff" stroke-width="1.5" stroke-linecap="round" stroke-linejoin="round" stroke-miterlimit="10" d="M101.9 104.1h32.4"/><path class="st2" d="M76.1 94H64.6c-1.2 0-2.2-1-2.2-2.2v-3.2c0-1.2 1-2.2 2.2-2.2h11.5c1.2 0 2.2 1 2.2 2.2v3.2c.1 1.2-.9 2.2-2.2 2.2z"/><path class="st8" d="M82.9 131.9c-1.5 2.1-1.3 5-.6 7.5.7 2.5 1.7 4.9 1.7 7.5 0 2.6-1.3 5.4-3.8 6M96.5 131.9c-1.5 2.1-1.3 5-.6 7.5.7 2.5 1.7 4.9 1.7 7.5 0 2.6-1.3 5.4-3.8 6M110.1 131.9c-1.5 2.1-1.3 5-.6 7.5.7 2.5 1.7 4.9 1.7 7.5 0 2.6-1.3 5.4-3.8 6M123.7 131.9c-1.5 2.1-1.3 5-.6 7.5.7 2.5 1.7 4.9 1.7 7.5 0 2.6-1.3 5.4-3.8 6M137.3 131.9c-1.5 2.1-1.3 5-.6 7.5s1.7 4.9 1.7 7.5c0 2.6-1.3 5.4-3.8 6M150.9 131.9c-1.5 2.1-1.3 5-.6 7.5.7 2.5 1.7 4.9 1.7 7.5 0 2.6-1.3 5.4-3.8 6"/></svg>