<svg version="1.1" id="Layer_1" xmlns="http://www.w3.org/2000/svg" x="0" y="0" viewBox="0 0 240 208" xml:space="preserve"><style>.st1{fill:#bbe1af}.st2{opacity:.31;fill:#387320}.st3{opacity:.44}.st4{fill:#fff}.st5{fill:none;stroke:#55b436;stroke-width:1.5;stroke-linecap:round;stroke-linejoin:round;stroke-miterlimit:10}.st6{fill:#4b992b}.st7{opacity:.22;fill:#387320}.st8{fill:#373736}.st11,.st9{fill:none;stroke:#13260b;stroke-width:1.5;stroke-linecap:round;stroke-linejoin:round;stroke-miterlimit:10}.st11{stroke-width:1.36;stroke-miterlimit:1.5}</style><path d="M195 158.5s-6.6-24.4 1.9-36.1c8.5-11.7 7.3-32.7-17.7-40.1-25-7.4-15.4-29.8-34.5-41.2-19-11.3-42.5-5.8-54 17.7s-38.5 5.6-50 23.4c-9.7 15.1 11.8 22.6 7.9 34.2s-13.8 30.4-6.3 42H195z" opacity=".22" fill="#55b436"/><path class="st1" d="M141.3 112.1l11.2 33.6-17.2-8.9-8.8 16.1-9.8-32.7-.2-.5c1 0 2 .3 2.9.8l2.5 1.4c3.2 1.8 7.3.5 8.8-2.9l1.2-2.6c.9-2 2.8-3.4 5-3.6l2.9-.3c.5 0 1-.2 1.5-.4z"/><path class="st2" d="M142.3 115.2c-.5.2-1 .3-1.5.4l-2.9.3c-2.2.2-4.1 1.6-5 3.6l-1.2 2.6c-1.5 3.4-5.6 4.7-8.8 2.9l-2.5-1.4c-.9-.5-1.9-.8-2.9-.8l.2.5 8.8 29.5-.1.2-9.8-32.7-.2-.5c1 0 2 .3 2.9.8l2.5 1.4c3.2 1.8 7.3.5 8.8-2.9l1.2-2.6c.9-2 2.8-3.4 5-3.6l2.9-.3c.5-.1 1.1-.2 1.5-.4l1.1 3z"/><g class="st3"><path class="st4" d="M179.8 103.7c.2 4.7-1.9 9-5.2 11.8-1.6 1.3-2.6 3.3-2.6 5.4h-13c0-2.1-1-4-2.6-5.3-3.2-2.6-5.3-6.6-5.3-11.1 0-8.2 7-14.9 15.3-14.3 7.2.3 13.1 6.2 13.4 13.5z"/><path class="st5" d="M168.2 120.7s.7-12 2.5-16.9M162.8 120.7s-.7-12-2.5-16.9M160.5 104.5h10"/><path class="st6" d="M171.3 120.8c1 0 1.9.8 1.9 1.9 0 .5-.2 1-.5 1.3-.3.3-.8.6-1.3.6h-11.7c-1 0-1.9-.8-1.9-1.9 0-.5.2-1 .5-1.3.3-.3.8-.5 1.3-.5h11.7zM171.3 124.6c1 0 1.9.8 1.9 1.9 0 .5-.2 1-.5 1.3-.3.3-.8.6-1.3.6h-11.7c-1 0-1.9-.8-1.9-1.9 0-.5.2-1 .5-1.3.3-.3.8-.5 1.3-.5h11.7z"/><path class="st6" d="M171.3 128.3c1 0 1.9.8 1.9 1.9 0 .5-.2 1-.5 1.3-.3.3-.8.6-1.3.6h-11.7c-1 0-1.9-.8-1.9-1.9 0-.5.2-1 .5-1.3s.8-.5 1.3-.5h11.7z"/><path class="st7" d="M173.2 122.7c0 .5-.2 1-.5 1.3-.3.3-.8.6-1.3.6h-2.1c.5 0 1-.2 1.3-.6.3-.3.5-.8.5-1.3 0-1-.8-1.9-1.9-1.9h2.1c1.1 0 1.9.9 1.9 1.9z"/><path class="st7" d="M173.2 126.4c0 .5-.2 1-.5 1.3-.3.3-.8.6-1.3.6h-2.1c.5 0 1-.2 1.3-.6.3-.3.5-.8.5-1.3 0-1-.8-1.9-1.9-1.9h2.1c1.1.1 1.9.9 1.9 1.9z"/><path class="st7" d="M173.2 130.2c0 .5-.2 1-.5 1.3-.3.3-.8.6-1.3.6h-2.1c.5 0 1-.2 1.3-.6.3-.3.5-.8.5-1.3 0-1-.8-1.9-1.9-1.9h2.1c1.1 0 1.9.9 1.9 1.9z"/><path class="st8" d="M169.2 132.1c.3 0 .6.3.6.6 0 .9-.4 1.7-.9 2.2-.6.6-1.4.9-2.2.9h-2.4c-1.7 0-3.2-1.4-3.2-3.2 0-.3.3-.6.6-.6h7.5z"/><path class="st9" d="M179.8 103.7c.2 4.7-1.9 9-5.2 11.8-1.6 1.3-2.6 3.3-2.6 5.4h-13c0-2.1-1-4-2.6-5.3-3.2-2.6-5.3-6.6-5.3-11.1 0-8.2 7-14.9 15.3-14.3 7.2.3 13.1 6.2 13.4 13.5z"/><path class="st9" d="M159.6 124.6c-1 0-1.9-.8-1.9-1.9 0-.5.2-1 .5-1.3.3-.3.8-.5 1.3-.5h11.7c1 0 1.9.8 1.9 1.9 0 .5-.2 1-.5 1.3-.3.3-.8.6-1.3.6"/><path class="st9" d="M159.6 128.3c-1 0-1.9-.8-1.9-1.9 0-.5.2-1 .5-1.3.3-.3.8-.5 1.3-.5h11.7c1 0 1.9.8 1.9 1.9 0 .5-.2 1-.5 1.3-.3.3-.8.6-1.3.6"/><path class="st9" d="M171.3 128.3c1 0 1.9.8 1.9 1.9 0 .5-.2 1-.5 1.3-.3.3-.8.6-1.3.6h-11.7c-1 0-1.9-.8-1.9-1.9 0-.5.2-1 .5-1.3s.8-.5 1.3-.5h11.7z"/><path class="st9" d="M166.6 135.8h-2.4c-1.7 0-3.2-1.4-3.2-3.2 0-.3.3-.6.6-.6h7.5c.3 0 .6.3.6.6 0 .9-.4 1.7-.9 2.2-.5.7-1.3 1-2.2 1z"/></g><g class="st3"><path class="st4" d="M81.9 103.7c.2 4.7-1.9 9-5.2 11.8-1.6 1.3-2.6 3.3-2.6 5.4H61c0-2.1-1-4-2.6-5.3-3.2-2.6-5.3-6.6-5.3-11.1 0-8.2 7-14.9 15.3-14.3 7.3.3 13.1 6.2 13.5 13.5z"/><path class="st5" d="M70.3 120.7s.7-12 2.5-16.9M64.8 120.7s-.7-12-2.5-16.9M62.6 104.5h10"/><path class="st6" d="M73.4 120.8c1 0 1.9.8 1.9 1.9 0 .5-.2 1-.5 1.3-.3.3-.8.6-1.3.6H61.6c-1 0-1.9-.8-1.9-1.9 0-.5.2-1 .5-1.3.3-.3.8-.5 1.3-.5h11.9zM73.4 124.6c1 0 1.9.8 1.9 1.9 0 .5-.2 1-.5 1.3-.3.3-.8.6-1.3.6H61.6c-1 0-1.9-.8-1.9-1.9 0-.5.2-1 .5-1.3.3-.3.8-.5 1.3-.5h11.9z"/><path class="st6" d="M73.4 128.3c1 0 1.9.8 1.9 1.9 0 .5-.2 1-.5 1.3-.3.3-.8.6-1.3.6H61.6c-1 0-1.9-.8-1.9-1.9 0-.5.2-1 .5-1.3s.8-.5 1.3-.5h11.9z"/><path class="st7" d="M75.2 122.7c0 .5-.2 1-.5 1.3s-.8.6-1.3.6h-2.1c.5 0 1-.2 1.3-.6.3-.3.5-.8.5-1.3 0-1-.8-1.9-1.9-1.9h2.1c1.1 0 1.9.9 1.9 1.9z"/><path class="st7" d="M75.2 126.4c0 .5-.2 1-.5 1.3-.3.3-.8.6-1.3.6h-2.1c.5 0 1-.2 1.3-.6.3-.3.5-.8.5-1.3 0-1-.8-1.9-1.9-1.9h2.1c1.1.1 1.9.9 1.9 1.9z"/><path class="st7" d="M75.2 130.2c0 .5-.2 1-.5 1.3s-.8.6-1.3.6h-2.1c.5 0 1-.2 1.3-.6.3-.3.5-.8.5-1.3 0-1-.8-1.9-1.9-1.9h2.1c1.1 0 1.9.9 1.9 1.9z"/><path class="st8" d="M71.3 132.1c.3 0 .6.3.6.6 0 .9-.4 1.7-.9 2.2-.6.6-1.4.9-2.2.9h-2.4c-1.7 0-3.2-1.4-3.2-3.2 0-.3.3-.6.6-.6h7.5z"/><path class="st9" d="M81.9 103.7c.2 4.7-1.9 9-5.2 11.8-1.6 1.3-2.6 3.3-2.6 5.4H61c0-2.1-1-4-2.6-5.3-3.2-2.6-5.3-6.6-5.3-11.1 0-8.2 7-14.9 15.3-14.3 7.3.3 13.1 6.2 13.5 13.5z"/><path class="st9" d="M61.6 124.6c-1 0-1.9-.8-1.9-1.9 0-.5.2-1 .5-1.3.3-.3.8-.5 1.3-.5h11.7c1 0 1.9.8 1.9 1.9 0 .5-.2 1-.5 1.3-.3.3-.8.6-1.3.6"/><path class="st9" d="M61.6 128.3c-1 0-1.9-.8-1.9-1.9 0-.5.2-1 .5-1.3.3-.3.8-.5 1.3-.5h11.7c1 0 1.9.8 1.9 1.9 0 .5-.2 1-.5 1.3-.3.3-.8.6-1.3.6"/><path class="st9" d="M73.4 128.3c1 0 1.9.8 1.9 1.9 0 .5-.2 1-.5 1.3-.3.3-.8.6-1.3.6H61.6c-1 0-1.9-.8-1.9-1.9 0-.5.2-1 .5-1.3s.8-.5 1.3-.5h11.9z"/><path class="st9" d="M68.7 135.8h-2.4c-1.7 0-3.2-1.4-3.2-3.2 0-.3.3-.6.6-.6h7.5c.3 0 .6.3.6.6 0 .9-.4 1.7-.9 2.2-.5.7-1.3 1-2.2 1z"/></g><path class="st9" d="M191.8 158.5h7M39.2 158.5H186.1"/><path class="st6" d="M148.6 85.1c2.7 2.5 2.7 6.8 0 9.2l-2.1 1.9c-1.6 1.5-2.4 3.7-1.9 5.9l.6 2.8c.6 3.1-1.1 6-3.9 7.1-.5.2-1 .3-1.6.4l-2.9.3c-2.2.2-4.1 1.6-5 3.6l-1.2 2.6c-1.5 3.4-5.6 4.7-8.8 2.9l-2.5-1.4c-.9-.5-1.9-.8-2.9-.8-1.1 0-2.3.2-3.3.8l-2.5 1.4c-3.2 1.8-7.3.5-8.8-2.9l-1.2-2.6c-.9-2-2.8-3.4-5-3.6l-2.3-.3-.5-.1c-3.7-.4-6.2-3.9-5.4-7.5l.6-2.8c.4-2.2-.3-4.4-1.9-5.9L84 94.2c-2.7-2.5-2.7-6.8 0-9.2l2.1-2c1.6-1.5 2.4-3.7 1.9-5.9l-.6-2.8c-.7-3.6 1.8-7.1 5.4-7.5l2.9-.3c2.2-.2 4.1-1.6 5-3.6l1.2-2.6c1.5-3.4 5.6-4.7 8.8-2.9l2.5 1.4c1.9 1.1 4.3 1.1 6.2 0l2.5-1.4c3.2-1.8 7.3-.5 8.8 2.9l1.2 2.6c.9 2 2.8 3.4 5 3.6l2.9.3c3.7.4 6.2 3.9 5.4 7.5l-.6 2.8c-.4 2.1.3 4.4 1.9 5.9l2.1 2.1zm-9.2 4.7c0-12.8-10.4-23.2-23.1-23.2S93.1 77 93.1 89.8c0 12.8 10.4 23.1 23.2 23.1s23.1-10.4 23.1-23.1z"/><path d="M148.6 85.1l-2.1-1.9c-1.6-1.5-2.4-3.7-1.9-5.9l.6-2.8c.7-3.6-1.8-7.1-5.4-7.5l-2.9-.3c-2.2-.2-4.1-1.6-5-3.6l-1.2-2.6c-1.3-2.9-4.5-4.3-7.4-3.5 1.5.6 2.8 1.7 3.5 3.3l1.2 2.6c.9 2 2.8 3.4 5 3.6l2.9.3c3.7.4 6.2 3.9 5.4 7.5l-.6 2.8c-.4 2.2.3 4.4 1.9 5.9l2.1 2c2.7 2.5 2.7 6.8 0 9.2l-2.1 2c-1.6 1.5-2.3 3.7-1.9 5.9l.6 2.8c.6 3.1-1.1 6-3.9 7.1-.1.1-.3.1-.5.1v.7l2.7-.3c.5-.1 1.1-.2 1.5-.4 2.8-1.1 4.5-4 3.9-7.1l-.6-2.8c-.4-2.1.3-4.4 1.9-5.9l2.1-2c2.9-2.4 2.9-6.7.2-9.2z" opacity=".5" fill="#387320"/><path class="st4" d="M116.3 66.6c12.8 0 23.1 10.4 23.1 23.2 0 12.8-10.4 23.1-23.1 23.1s-23.2-10.4-23.2-23.1c0-12.8 10.4-23.2 23.2-23.2z"/><path class="st1" d="M116.5 119.7l.2.5-.4.1-9.4 32.6-8-16.6-16.5 9.2 10.9-32.9 2.3.3c2.2.2 4.1 1.6 5 3.6l1.2 2.6c1.5 3.4 5.6 4.7 8.8 2.9l2.5-1.4c1.1-.6 2.2-.9 3.4-.9z"/><path class="st2" d="M116.6 120.3l-.4.1-9.4 32.6-.3-.6 8.2-28.6.4-.1-.2-.5c-1.1 0-2.3.2-3.3.8l-2.5 1.4c-3.2 1.8-7.3.5-8.8-2.9l-1.2-2.6c-.9-2-2.8-3.4-5-3.6l-2.1-.2 1.1-3.5 2.3.3c2.2.2 4.1 1.6 5 3.6l1.2 2.6c1.5 3.4 5.6 4.7 8.8 2.9l2.5-1.4c1-.6 2.2-.8 3.3-.8l.4.5z"/><path class="st11" d="M93.3 112.6l-10.9 32.9 16.5-9.2 8 16.6 9.4-32.5M116.5 119.7l.1.6 9.8 32.6 8.8-16.1 17.2 9-11.1-33.7"/><path class="st11" d="M93.3 112.6l-.5-.1c-3.7-.4-6.2-3.9-5.4-7.5l.6-2.8c.4-2.2-.3-4.4-1.9-5.9L84 94.4c-2.7-2.5-2.7-6.8 0-9.2l2.1-2c1.6-1.5 2.4-3.7 1.9-5.9l-.6-2.8c-.7-3.6 1.8-7.1 5.4-7.5l2.9-.3c2.2-.2 4.1-1.6 5-3.6l1.2-2.6c1.5-3.4 5.6-4.7 8.8-2.9l2.5 1.4c1.9 1.1 4.3 1.1 6.2 0l2.5-1.4c3.2-1.8 7.3-.5 8.8 2.9l1.2 2.6c.9 2 2.8 3.4 5 3.6l2.9.3c3.7.4 6.2 3.9 5.4 7.5l-.6 2.8c-.4 2.1.3 4.4 1.9 5.9l2.1 2c2.7 2.5 2.7 6.8 0 9.2l-2.1 1.9c-1.6 1.5-2.4 3.7-1.9 5.9l.6 2.8c.6 3.1-1.1 6-3.9 7.1-.5.2-1 .3-1.6.4l-2.9.3c-2.2.2-4.1 1.6-5 3.6l-1.2 2.6c-1.5 3.4-5.6 4.7-8.8 2.9l-2.5-1.4c-.9-.5-1.9-.8-2.9-.8-1.1 0-2.3.2-3.3.8l-2.5 1.4c-3.2 1.8-7.3.5-8.8-2.9l-1.2-2.6c-.9-2-2.8-3.4-5-3.6l-2.3-.2z"/><path class="st11" d="M139.4 89.8c0 12.8-10.4 23.1-23.1 23.1s-23.2-10.4-23.2-23.1c0-12.8 10.4-23.2 23.2-23.2s23.1 10.4 23.1 23.2z"/><g><path class="st1" d="M108.1 97v2.9h-7.5V82.8h7.5v2.8z"/><path class="st6" d="M128.9 91.5v.1c1 0 1.9.8 1.9 1.9 0 1-.8 1.9-1.9 1.9h-1.3v.1c1 0 1.9.8 1.9 1.9 0 1-.8 1.9-1.9 1.9h-13.8c-.8 0-1.5-.7-1.5-1.6 0-.3-.3-.6-.6-.6h-3.5V85.6h2.7c.5 0 1-.2 1.4-.5l4.4-4c.3-.3.6-.7.7-1.1l2.3-6.7s3.8.1 3.5 3.5l-1.9 7.1h8.3c1.1 0 2 .9 2 2s-.9 2-2 2h.4c1 0 1.9.8 1.9 1.9 0 1-.8 1.9-1.9 1.9h-1.1z"/><g><path class="st11" d="M108.1 97v2.9h-7.5V82.8h7.5v2.8zM108.1 85.6h2.7c.5 0 1-.2 1.4-.5l4.4-4c.3-.3.6-.7.7-1.1l2.3-6.7s3.8.1 3.5 3.5l-1.9 7.1M128.5 87.7h-.4"/><path class="st11" d="M120 83.7H129.6c1.1 0 2 .9 2 2s-.9 2-2 2M128.5 87.7h1.6c1 0 1.9.8 1.9 1.9 0 1-.8 1.9-1.9 1.9H127M127.3 91.6h1.6c1 0 1.9.8 1.9 1.9 0 1-.8 1.9-1.9 1.9h-3.1M126 95.4h1.6c1 0 1.9.8 1.9 1.9 0 1-.8 1.9-1.9 1.9h-13.8c-.9 0-1.5-.7-1.5-1.6 0-.3-.3-.6-.6-.6h-3.2"/></g></g></svg>