<svg version="1.1" id="Layer_1" xmlns="http://www.w3.org/2000/svg" x="0" y="0" viewBox="0 0 240 208" xml:space="preserve"><style>.st1{fill:#4b992b}.st2{fill:none;stroke:#13260b;stroke-width:1.5;stroke-linecap:round;stroke-linejoin:round;stroke-miterlimit:10}.st3{fill:#fff}</style><path d="M197.5 158.4s-6.6-24.4 1.9-36.1c8.5-11.7 7.3-32.7-17.7-40.1-25-7.4-15.4-29.8-34.5-41.2s-42.5-5.8-54 17.7-38.5 5.6-50 23.4c-9.7 15.1 11.8 22.6 7.9 34.2s-13.8 30.4-6.3 42h152.7z" opacity=".22" fill="#55b436"/><path class="st1" d="M156 150.2H90.4c-1.3 0-2.3-1-2.3-2.3V61.8c0-1.3 1-2.3 2.3-2.3H156c1.3 0 2.3 1 2.3 2.3v86.1c0 1.3-1 2.3-2.3 2.3z"/><path class="st2" d="M156 150.2H90.4c-1.3 0-2.3-1-2.3-2.3V61.8c0-1.3 1-2.3 2.3-2.3H156c1.3 0 2.3 1 2.3 2.3v86.1c0 1.3-1 2.3-2.3 2.3z"/><path class="st3" d="M147.8 158.4H82.2c-1.3 0-2.3-1-2.3-2.3V70c0-1.3 1-2.3 2.3-2.3h65.7c1.3 0 2.3 1 2.3 2.3v86.1c-.1 1.3-1.1 2.3-2.4 2.3z"/><path class="st2" d="M147.8 158.4H82.2c-1.3 0-2.3-1-2.3-2.3V70c0-1.3 1-2.3 2.3-2.3h65.7c1.3 0 2.3 1 2.3 2.3v86.1c-.1 1.3-1.1 2.3-2.4 2.3zM37.3 158.4h-1.5M194.3 158.4h7M41.7 158.4H188.6M105.6 78.9h19.6M93.3 87.4h44.3M93.3 105.1h44.3M93.3 114.3h44.3M93.3 123.5h44.3M93.3 132.7h44.3M93.3 141.8h44.3M93.3 96h28.1M128.6 96h8.5"/><circle cx="148.6" cy="124.7" r="26.9" opacity=".15"/><circle class="st3" cx="155.3" cy="123.9" r="26.9"/><circle class="st2" cx="155.3" cy="123.9" r="26.9"/><path class="st1" d="M133.7 130.5l10.4-13.5h7.1l3.8-5.1h11l14.2 18.6h-10.9l-13.2-17.1-2.7 3.8 10.1 13.3h-8.9l-9.3-12-9.2 12z"/><path class="st1" d="M142.4 125.4h2.2v2.2h-2.2zM146 125.4h2.2v2.2H146zM142.4 128.9h2.2v2.2h-2.2zM146 128.9h2.2v2.2H146z"/></svg>