<svg version="1.1" id="Layer_1" xmlns="http://www.w3.org/2000/svg" x="0" y="0" viewBox="0 0 240 208" xml:space="preserve"><style>.st2{fill:#13260b}.st3{fill:#fff}.st4{fill:#4b992b}</style><path d="M198.3 158.4s-6.6-24.4 1.9-36.1c8.5-11.7 7.3-32.7-17.7-40.1-25-7.4-15.4-29.8-34.5-41.2s-42.5-5.8-54 17.7-38.5 5.6-50 23.4c-9.7 15.1 11.8 22.6 7.9 34.2s-13.8 30.4-6.3 42h152.7z" fill="#55b436" opacity=".22"/><path class="st2" d="M36.5 159.2H35c-.4 0-.8-.3-.8-.8s.3-.8.8-.8h1.5c.4 0 .8.3.8.8s-.4.8-.8.8zM200.5 159.2h-6.9c-.4 0-.8-.3-.8-.8s.3-.8.8-.8h6.9c.4 0 .8.3.8.8s-.4.8-.8.8zM187.8 159.2H40.9c-.4 0-.8-.3-.8-.8s.3-.8.8-.8h146.9c.4 0 .8.3.8.8s-.4.8-.8.8z"/><path class="st3" d="M185 100.5v57.9h-49.9V98.3l2.4 2.2z"/><path class="st3" d="M169.7 141.8s-2.3 16.6-24.3 16.6l24.3-.3v-16.3z"/><path class="st4" d="M167.4 125.3v7.8c0 .4-.3.7-.7.7h-7.8v-8.5h8.5z"/><path class="st4" d="M167.4 117.5v7.8h-16.9v-7.8c0-.4.3-.7.7-.7h15.5c.4 0 .7.3.7.7zM158.9 125.3v8.5h-7.8c-.4 0-.7-.3-.7-.7v-7.8h8.5zM135.1 98.3l-31.9-28.5h54.3c.3 0 .5.1.7.3L191 98.6c.8.7.3 1.9-.7 1.9h-52.7l-2.5-2.2z"/><path d="M103.2 90.8c3.4 0 6.2 2.8 6.2 6.2 0 3.4-2.8 6.2-6.2 6.2-3.4 0-6.2-2.8-6.2-6.2 0-3.4 2.8-6.2 6.2-6.2z" fill="#373736"/><path class="st3" d="M116 158.4H90.3c-.5 0-.9-.4-.9-.9v-33c0-.5.4-.9.9-.9H116c.5 0 .9.4.9.9v33c.1.5-.4.9-.9.9z"/><path d="M72.8 95.7l12.5-10.6 17.9-15.3 31.9 28.5v60.2H116c.5 0 .9-.4.9-.9v-33c0-.5-.4-.9-.9-.9H90.3c-.5 0-.9.4-.9.9v33c0 .5.4.9.9.9h-19V97l1.5-1.3zm36.5 1.3c0-3.4-2.8-6.2-6.2-6.2-3.4 0-6.2 2.8-6.2 6.2 0 3.4 2.8 6.2 6.2 6.2 3.5 0 6.2-2.8 6.2-6.2z" fill="#bbe1af"/><path d="M135.1 98.3v4.6l-31.9-28.5-18 15.4-12.4 10.6-1.5 1.3V97l1.5-1.3 12.4-10.6 18-15.3z" opacity=".08"/><path class="st2" d="M67.2 101.2c-.2 0-.4-.1-.6-.3-.3-.3-.2-.8.1-1.1l36-30.7c.1-.1.3-.2.4-.2h54.3c.5 0 .9.2 1.2.5L191.5 98c.6.5.8 1.3.5 2.1-.3.7-.9 1.2-1.7 1.2h-52.7c-.2 0-.4-.1-.5-.2l-33.9-30.3-35.5 30.3c-.2.1-.4.1-.5.1zm70.7-1.5h52.4c.2 0 .3-.1.3-.2s.1-.2-.1-.4l-32.8-28.5s-.1-.1-.2-.1h-52.4l32.8 29.2z"/><path class="st2" d="M90.3 159.2h-19c-.4 0-.8-.3-.8-.8V97c0-.4.3-.8.8-.8s.7.4.7.8v60.7h18.3c.4 0 .8.3.8.8s-.4.7-.8.7zM135.1 159.2H116c-.4 0-.8-.3-.8-.8s.3-.8.8-.8h18.3v-13.8c0-.4.3-.8.8-.8s.8.3.8.8v14.5c0 .6-.4.9-.8.9z"/><path class="st2" d="M135.1 146c-.4 0-.8-.3-.8-.8V98.3c0-.4.3-.8.8-.8s.8.3.8.7v47c0 .5-.4.8-.8.8zM116 159.2H90.3c-.9 0-1.7-.8-1.7-1.7v-33c0-.9.8-1.7 1.7-1.7H116c.9 0 1.7.8 1.7 1.7v33c0 .9-.7 1.7-1.7 1.7zm-25.7-34.8c-.1 0-.2.1-.2.2v33c0 .1.1.2.2.2H116c.1 0 .2-.1.2-.2v-33c0-.1-.1-.2-.2-.2H90.3zM103.2 103.9c-3.8 0-6.9-3.1-6.9-6.9s3.1-6.9 6.9-6.9c3.8 0 6.9 3.1 6.9 6.9s-3.1 6.9-6.9 6.9zm0-12.3c-3 0-5.4 2.4-5.4 5.4s2.4 5.4 5.4 5.4c3 0 5.4-2.4 5.4-5.4s-2.4-5.4-5.4-5.4z"/><path class="st3" d="M150.5 124.5h16.9v1.5h-16.9z"/><path class="st3" d="M158.2 125.3h1.5v8.5h-1.5z"/><path d="M135.7 99.7v3.2l49.3.1v-2.5.1h-47.6c-.4-.5-1.1-.9-1.7-.9z" fill="#1b4e83" opacity=".19"/><path class="st2" d="M185 159.2h-49.9c-.4 0-.8-.3-.8-.8s.3-.8.8-.8h49.1v-57.1c0-.4.3-.8.8-.8s.8.3.8.8v57.9c-.1.5-.4.8-.8.8z"/><path class="st2" d="M166.7 134.5h-15.5c-.8 0-1.4-.6-1.4-1.4v-15.6c0-.8.6-1.4 1.4-1.4h15.5c.8 0 1.4.6 1.4 1.4V133c0 .8-.6 1.5-1.4 1.5zm-.1-17l-15.5.1.1 7.7v7.8l7.7-.1h7.8l-.1-7.7v-7.8z"/><path class="st3" d="M182.5 94.4l-25.6-21.8c-.3-.3-.7-.4-1.1-.4h-42.7-.1l-.1.1c-.1 0-.1.1-.1.1s0 .1-.1.1c0 0-.1.1-.1.2v.6l.1.1c0 .1.1.1.1.1L139.7 97l.1.1s.1 0 .1.1c.1 0 .2.1.3.1h41.2c.7 0 1.3-.4 1.6-1.1.2-.6.1-1.3-.5-1.8zm-20.3 1.3l-5.4-4.7h7.3l5.4 4.7h-7.3zm-9.8 0L147 91h7.3l5.4 4.7h-7.3zm-11.9 0l-5.4-4.7h9.3l5.4 4.7h-9.3zm-12.3-10.8h9.3l5 4.4h-9.3-.1l-4.9-4.4zm-3.3-11l3.9 3.4h-9.3l-3.9-3.4h9.3zm9.8 0l3.9 3.4h-7.3l-3.9-3.4h7.3zm9.8 0l3.9 3.4h-7.3l-3.9-3.4h7.3zm17.1 4.9l5.2 4.4h-9l-5-4.4h8.5c.2.1.2.1.3 0zm-6.3 4.5H148l-5-4.4h7.3l5 4.4zm-17.1 0l-5-4.4h7.3l5 4.4h-7.3zm9.2 1.6l5 4.4h-7.3l-5-4.4h7.3zm-16.8-6l5 4.4h-9.3l-5-4.4h9.3zM155 89.3l-5-4.4h7.3l5 4.4H155zm4.8-4.4h9l5.2 4.4h-9.1l-5.1-4.4zm-4-11l4 3.4H151l-3.9-3.4h8.7zm16.3 21.8l-5.4-4.7h9.2l5.5 4.7h-9.3z" opacity=".41"/><circle class="st3" cx="171.1" cy="66.7" r="23.3"/><path class="st2" d="M171.1 90.8c-13.3 0-24-10.8-24-24s10.8-24 24-24 24 10.8 24 24-10.7 24-24 24zm0-46.6c-12.4 0-22.5 10.1-22.5 22.5s10.1 22.5 22.5 22.5 22.5-10.1 22.5-22.5-10-22.5-22.5-22.5z"/><path class="st2" d="M171.1 53.5c-1.7 0-3-1.4-3-3s1.4-3 3-3 3 1.4 3 3-1.3 3-3 3zm0-4.5c-.8 0-1.5.7-1.5 1.5s.7 1.5 1.5 1.5 1.5-.7 1.5-1.5-.6-1.5-1.5-1.5z"/><path class="st2" d="M161.4 60.9c-.2 0-.4-.1-.5-.2-.3-.3-.3-.8 0-1.1l8.1-8.1c.3-.3.8-.3 1.1 0 .3.3.3.8 0 1.1l-8.1 8.1c-.3.1-.5.2-.6.2zM180.9 60.9c-.2 0-.4-.1-.5-.2l-8.1-8.1c-.3-.3-.3-.8 0-1.1.3-.3.8-.3 1.1 0l8.1 8.1c.3.3.3.8 0 1.1-.2.1-.4.2-.6.2z"/><path class="st4" d="M183.4 76.2h-24.5c-1 0-1.8-.8-1.8-1.8V61.9c0-1 .8-1.8 1.8-1.8h24.5c1 0 1.8.8 1.8 1.8v12.5c-.1 1-.9 1.8-1.8 1.8z"/><path class="st2" d="M183.4 76.9h-24.5c-1.4 0-2.5-1.1-2.5-2.5V61.9c0-1.4 1.1-2.5 2.5-2.5h24.5c1.4 0 2.5 1.1 2.5 2.5v12.5c0 1.4-1.1 2.5-2.5 2.5zm-24.5-16c-.6 0-1 .5-1 1v12.5c0 .6.5 1 1 1h24.5c.6 0 1-.5 1-1V61.9c0-.6-.5-1-1-1h-24.5z"/><path class="st3" d="M167.2 71.3h-1.3v-2.6h-2.4v2.6h-1.3v-6.1h1.3v2.5h2.4v-2.5h1.3v6.1zM170.9 70.9c-.3.4-.7.5-1.2.5s-.9-.1-1.1-.4-.4-.7-.4-1.2v-3h1.2v2.9c0 .5.2.7.6.7.4 0 .7-.1.8-.4v-3.2h1.2v4.5h-1l-.1-.4zM175.7 70.9c-.3.4-.7.5-1.2.5s-.9-.1-1.1-.4-.4-.7-.4-1.2v-3h1.2v2.9c0 .5.2.7.6.7.4 0 .7-.1.8-.4v-3.2h1.2v4.5h-1.1v-.4zM180.3 67.9h-.4c-.5 0-.8.2-.9.5v3h-1.2v-4.5h1.1v.5c.2-.4.6-.6 1-.6.1 0 .3 0 .4.1v1z"/></svg>