<svg version="1.1" id="Layer_1" xmlns="http://www.w3.org/2000/svg" x="0" y="0" viewBox="0 0 240 208" xml:space="preserve"><style>.st1{fill:none;stroke:#13260b;stroke-width:1.5;stroke-linecap:round;stroke-linejoin:round;stroke-miterlimit:10}.st2{fill:#4b992b}.st4{fill:#bbe1af}.st5{fill:#55b436}.st6{fill:#fff}.st7{opacity:.22;fill:#387320}</style><path d="M198.3 158.4s-6.6-24.4 1.9-36.1c8.5-11.7 7.3-32.7-17.7-40.1S167.1 52.4 148.1 41s-42.5-5.8-54 17.7-38.5 5.6-50 23.4c-9.7 15.1 11.8 22.6 7.9 34.2s-13.8 30.4-6.3 42h152.6z" opacity=".22" fill="#55b436"/><path class="st1" d="M36.5 158.4H35M193.5 158.4h7M40.9 158.4H187.8"/><path class="st2" d="M84 88.6v48.5h-7.2V88.6H84zM158.1 88.6v48.5h-7.2V88.6z"/><path opacity=".15" d="M154.5 89.1h3.6v47.6h-3.6z"/><path class="st4" d="M143.2 125.2c1.9 0 3.5 1.6 3.5 3.5 0 1-.4 1.8-1 2.5-.6.6-1.5 1-2.5 1h-5.7v-7h5.7zM124.1 125.2h13.4v7h-13.4z"/><path class="st4" d="M110.8 125.2h13.4v7h-13.4zM97.4 125.2v7h-5.2c-1.9 0-3.5-1.6-3.5-3.5 0-1 .4-1.8 1-2.5.6-.6 1.5-1 2.5-1h5.2z"/><path class="st4" d="M97.4 125.2h13.4v7H97.4zM124.1 114.6h13.4v7h-13.4zM143.2 114.6c1.9 0 3.5 1.6 3.5 3.5 0 1-.4 1.8-1 2.5-.6.6-1.5 1-2.5 1h-5.7v-7h5.7zM97.4 114.6h13.4v7H97.4zM97.4 114.6v7h-5.2c-1.9 0-3.5-1.6-3.5-3.5 0-1 .4-1.8 1-2.5.6-.6 1.5-1 2.5-1h5.2z"/><path class="st4" d="M110.8 114.6h13.4v7h-13.4zM143.2 104c1.9 0 3.5 1.6 3.5 3.5 0 1-.4 1.8-1 2.5-.6.6-1.5 1-2.5 1h-5.7v-7h5.7zM124.1 104h13.4v7h-13.4z"/><path class="st4" d="M110.8 104h13.4v7h-13.4z"/><path class="st4" d="M97.4 104h13.4v7H97.4zM97.4 104v7h-5.2c-1.9 0-3.5-1.6-3.5-3.5 0-1 .4-1.8 1-2.5.6-.6 1.5-1 2.5-1h5.2zM143.2 93.5c1.9 0 3.5 1.6 3.5 3.5 0 1-.4 1.8-1 2.5-.6.6-1.5 1-2.5 1h-5.7v-7h5.7zM124.1 93.5h13.4v7h-13.4z"/><path class="st4" d="M110.8 93.5h13.4v7h-13.4z"/><path class="st4" d="M97.4 93.5h13.4v7H97.4zM97.4 93.5v7h-5.2c-1.9 0-3.5-1.6-3.5-3.5 0-1 .4-1.8 1-2.5.6-.6 1.5-1 2.5-1h5.2z"/><path class="st5" d="M110.8 111.1h13.4v3.6h-13.4z"/><path class="st5" d="M124.1 111.1h13.4v3.6h-13.4zM124.1 121.6h13.4v3.6h-13.4z"/><path class="st5" d="M110.8 121.6h13.4v3.6h-13.4z"/><path class="st5" d="M97.4 121.6h13.4v3.6H97.4zM97.4 132.2h13.4v4.9H97.4z"/><path class="st5" d="M110.8 132.2h13.4v4.9h-13.4z"/><path class="st5" d="M124.1 132.2h13.4v4.9h-13.4zM150.9 88.6v48.6h-13.4v-4.9h5.7c1 0 1.8-.4 2.5-1 .6-.6 1-1.5 1-2.5 0-1.9-1.6-3.5-3.5-3.5h-5.7v-3.6h5.7c1 0 1.8-.4 2.5-1 .6-.6 1-1.5 1-2.5 0-1.9-1.6-3.5-3.5-3.5h-5.7v-3.6h5.7c1 0 1.8-.4 2.5-1 .6-.6 1-1.5 1-2.5 0-1.9-1.6-3.5-3.5-3.5h-5.7v-3.6h5.7c1 0 1.8-.4 2.5-1 .6-.6 1-1.5 1-2.5 0-1.9-1.6-3.5-3.5-3.5h-5.7v-4.9h13.4zM137.5 88.6v4.9h-13.4v-4.9h13.4zM124.1 100.5h13.4v3.6h-13.4z"/><path class="st5" d="M110.8 100.5h13.4v3.6h-13.4zM124.1 88.6v4.9h-13.3v-4.9h13.3z"/><path class="st5" d="M110.8 88.6v4.9H97.4v-4.9h13.4zM97.4 100.5h13.4v3.6H97.4zM97.4 111.1h13.4v3.6H97.4zM97.4 132.2v4.9H84V88.6h13.4v4.9h-5.2c-1 0-1.8.4-2.5 1-.6.6-1 1.5-1 2.5 0 1.9 1.6 3.5 3.5 3.5h5.2v3.6h-5.2c-1 0-1.8.4-2.5 1-.6.6-1 1.5-1 2.5 0 1.9 1.6 3.5 3.5 3.5h5.2v3.6h-5.2c-1 0-1.8.4-2.5 1-.6.6-1 1.5-1 2.5 0 1.9 1.6 3.5 3.5 3.5h5.2v3.6h-5.2c-1 0-1.8.4-2.5 1-.6.6-1 1.5-1 2.5 0 1.9 1.6 3.5 3.5 3.5h5.2z"/><path class="st6" d="M76.8 137.1v1.2c0 2.5-2 4.5-4.5 4.5H60c-2.5 0-4.5-2-4.5-4.5v-51c0-2.5 2-4.5 4.5-4.5h12.4c2.5 0 4.5 2 4.5 4.5V137.1z"/><path class="st7" d="M63.5 142.8H60c-2.5 0-4.5-2-4.5-4.5v-51c0-2.5 2-4.5 4.5-4.5h3.6c-2.5 0-4.5 2-4.5 4.5v51c-.1 2.5 2 4.5 4.4 4.5z"/><path class="st6" d="M179.5 87.4v51c0 2.5-2 4.5-4.5 4.5h-12.4c-2.5 0-4.5-2-4.5-4.5V87.4c0-2.5 2-4.5 4.5-4.5H175c2.5-.1 4.5 2 4.5 4.5z"/><path class="st7" d="M179.5 87.4v51c0 2.5-2 4.5-4.5 4.5h-3c2.5 0 4.5-2 4.5-4.5v-51c0-2.5-2-4.5-4.5-4.5h3c2.5-.1 4.5 2 4.5 4.5z"/><path class="st1" d="M76.8 137.1v1.2c0 2.5-2 4.5-4.5 4.5H60c-2.5 0-4.5-2-4.5-4.5v-51c0-2.5 2-4.5 4.5-4.5h12.4c2.5 0 4.5 2 4.5 4.5v1.2M158.1 88.6v-1.2c0-2.5 2-4.5 4.5-4.5H175c2.5 0 4.5 2 4.5 4.5v51c0 2.5-2 4.5-4.5 4.5h-12.4c-2.5 0-4.5-2-4.5-4.5v-1.2"/><path class="st1" d="M76.8 137.1h81.3V88.6H76.8zM84 88.6v48.6M97.4 88.6v48.6M110.8 88.6v48.6M124.1 88.6v48.6M137.5 88.6v48.6M150.9 88.6v48.6"/><path class="st1" d="M137.5 93.5h5.7c1.9 0 3.5 1.6 3.5 3.5 0 1-.4 1.8-1 2.5-.6.6-1.5 1-2.5 1h-51c-1.9 0-3.5-1.6-3.5-3.5 0-1 .4-1.8 1-2.5.6-.6 1.5-1 2.5-1h45.3zM137.5 104h5.7c1.9 0 3.5 1.6 3.5 3.5 0 1-.4 1.8-1 2.5-.6.6-1.5 1-2.5 1h-51c-1.9 0-3.5-1.6-3.5-3.5 0-1 .4-1.8 1-2.5.6-.6 1.5-1 2.5-1h45.3zM137.5 114.6h5.7c1.9 0 3.5 1.6 3.5 3.5 0 1-.4 1.8-1 2.5-.6.6-1.5 1-2.5 1h-51c-1.9 0-3.5-1.6-3.5-3.5 0-1 .4-1.8 1-2.5.6-.6 1.5-1 2.5-1h45.3zM137.5 125.2h5.7c1.9 0 3.5 1.6 3.5 3.5 0 1-.4 1.8-1 2.5-.6.6-1.5 1-2.5 1h-51c-1.9 0-3.5-1.6-3.5-3.5 0-1 .4-1.8 1-2.5.6-.6 1.5-1 2.5-1h45.3zM61.3 91.2h9.4M61.3 99.9h9.4M61.3 108.5h9.4M61.3 117.2h9.4M61.3 125.8h9.4M61.3 134.4h9.4M164.1 91.2h9.4M164.1 99.9h9.4M164.1 108.5h9.4M164.1 117.2h9.4M164.1 125.8h9.4M164.1 134.4h9.4"/><g opacity=".36"><path class="st1" d="M97.6 72.1c1.8 1.1 2.9 3.1 3.6 5.1s.8 4.1.9 6.2M105 64.8c3.4 4 5.1 9.4 4.7 14.7M137.5 72.1c-1.8 1.1-2.9 3.1-3.6 5.1s-.8 4.1-.9 6.2M130.1 64.8c-3.4 4-5.1 9.4-4.7 14.7M117.6 79.5V59.9"/></g></svg>