<svg version="1.1" id="Layer_1" xmlns="http://www.w3.org/2000/svg" x="0" y="0" viewBox="0 0 240 208" xml:space="preserve"><style>.st1{fill:none;stroke:#13260b;stroke-width:1.5;stroke-linecap:round;stroke-linejoin:round;stroke-miterlimit:10}.st2{fill:#fff}.st3{fill:#4b992b}.st4{fill:#73af5a}</style><path d="M198.3 158.4s-6.6-24.4 1.9-36.1c8.5-11.7 7.3-32.7-17.7-40.1S167.1 52.4 148.1 41s-42.5-5.8-54 17.7-38.5 5.6-50 23.4c-9.7 15.1 11.8 22.6 7.9 34.2s-13.8 30.4-6.3 42h152.6z" opacity=".22" fill="#55b436"/><path class="st1" d="M36.5 158.4H35M40.9 158.4H202.5"/><ellipse class="st2" cx="62.6" cy="103.2" rx="41.8" ry="41.6" transform="matrix(.89159 0 0 .88639 61.82 15.14)"/><ellipse class="st3" cx="62.6" cy="103.2" rx="41.8" ry="41.6" transform="matrix(.89159 0 0 .88639 61.82 15.14)"/><path class="st4" d="M69.9 56.9c22.4 3.5 39.5 22.9 39.5 46.3 0 25.9-21 46.9-46.9 46.9-4.9 0-9.7-.8-14.1-2.2 2.4.4 4.8.6 7.3.6 25.9 0 46.9-21 46.9-46.9.1-20.9-13.7-38.7-32.7-44.7z" transform="matrix(.89159 0 0 .88639 61.82 15.14)"/><g transform="translate(-265.952 -3438.83) scale(1.67402)"><ellipse class="st1" cx="229.4" cy="2117.9" rx="13" ry="25"/><path class="st1" d="M229.4 2092.9v50M204.4 2117.9h50M229.4 2106.9c7.9 0 14.9-1.8 19.5-4.7-4.6-5.7-11.6-9.3-19.5-9.3s-14.9 3.6-19.5 9.3c4.6 2.9 11.7 4.7 19.5 4.7zM229.4 2128.9c-7.9 0-14.9 1.8-19.5 4.7 4.6 5.7 11.6 9.3 19.5 9.3s14.9-3.6 19.5-9.3c-4.6-2.9-11.6-4.7-19.5-4.7z"/><circle class="st1" cx="229.4" cy="2117.9" r="25"/></g><circle cx="213.5" cy="204.5" r="24.6" transform="translate(-78.255 -118.799) scale(1.06625)" opacity=".15"/><circle class="st2" cx="217.2" cy="204.5" r="24.6" transform="translate(-78.255 -118.799) scale(1.06625)"/><circle cx="217.2" cy="204.5" r="24.6" fill="none" stroke="#13260b" stroke-width="1.36" stroke-linecap="round" stroke-linejoin="round" stroke-miterlimit="1.5" transform="translate(-78.168 -119.11) scale(1.06625)"/><path class="st3" d="M144 89l-.3-.3c0-.1.3 0 .4 0h1.3c1.8 0 3.5.1 5.3.5 4.8 1.1 9.6 4 10.3 8.6.3 1.7-.4 4-1.6 5.3-1 .8-1.9 1.5-3.1 2.1-.7.3-1.4.6-2.1.8-4.7 1.2-7.3-3.9-7.9-7.1-.4-2-.5-3.9-.8-5.9-.3-1.3-.5-2.9-1.5-4z" transform="matrix(1.01677 0 0 1.02631 -10.124 -3.685)"/><path class="st4" d="M159.3 103.1c-1 .8-1.9 1.5-3.1 2.1-.6.3-1.3.6-2 .8 1.1-.5 1.9-1.2 2.8-1.9 1.2-1.3 1.9-3.6 1.7-5.3-.8-4.6-5.5-7.6-10.3-8.6-1.3-.3-2.6-.4-3.9-.5-.1-.2-.2-.4-.4-.5l-.3-.3c0-.1.3 0 .4 0h1.3c1.8 0 3.5.1 5.3.5 4.8 1.1 9.6 4 10.3 8.6.1 1.5-.6 3.7-1.8 5.1z" transform="matrix(1.01677 0 0 1.02631 -10.124 -3.685)"/><path class="st3" d="M415 55.7s-1-1.4-.2-3.5c.8-2.2 5.5-4.7 10.4-1 0 0-1.6.4-2.3 1.6-.8 1.2-1.2 3.1-3.7 4.4-2.4 1.2-4.2-1.5-4.2-1.5z" transform="matrix(1.53555 -.09416 .09736 1.58783 -485.537 55.268)"/><path class="st4" d="M415 55.7c-.2-.2-.9-1.6-.1-3.5.8-2.2 5.5-4.7 10.4-1l-.2.1c-4.7-2.5-8.9.1-9.7 2.3-.4.8-.4 1.5-.4 2.1z" transform="matrix(1.53555 -.09416 .09736 1.58783 -485.537 55.268)"/><path class="st1" d="M302.3 106.5c.8-1 2.1-2.6 2-4.9-.2-3.6-3.7-5.8-7-6.7-1.2-.3-2.3-.4-3.6-.4h-.8-.3" transform="matrix(1.48437 0 0 1.29148 -298.325 -34.17)"/><path class="st1" d="M292.6 94.5c.9.9 1 2.2 1.1 3.3.2 1.5.3 3.1.5 4.6.4 2.5 1.9 5.7 5.3 5.5 1.2-.1 1.8-.7 2.2-1" transform="matrix(1.48437 0 0 1.29148 -298.325 -34.17)"/><path class="st1" d="M265.7 114.5v-.3-.6-1.7c-.1-1.8-.4-3.5-1.1-5.1-1.8-4.9-5.6-9.4-10.3-11.7" transform="matrix(1.3211 0 0 1.33372 -199.81 -38.808)"/><path class="st1" d="M337.8 117.2c-.1-2.3 2.3-5.1 3.1-5.9 2.4-2.4 5.1-3.2 8.5-3.9" transform="matrix(1.66329 0 0 1.78713 -410.627 -95.462)"/><path class="st1" d="M415 55.7s-1-1.4-.2-3.5c.8-2.2 5.5-4.7 10.4-1 0 0-1.6.4-2.3 1.6-.8 1.2-1.2 3.1-3.7 4.4-2.4 1.2-4.2-1.5-4.2-1.5z" transform="matrix(1.53555 -.09416 .09736 1.58783 -485.521 55.218)"/></svg>