<?xml version="1.0" encoding="utf-8"?>
<!-- Generator: Adobe Illustrator 23.1.0, SVG Export Plug-In . SVG Version: 6.00 Build 0)  -->
<svg version="1.1" id="Layer_1" xmlns="http://www.w3.org/2000/svg" xmlns:xlink="http://www.w3.org/1999/xlink" x="0px" y="0px"
	 viewBox="0 0 240 208" style="enable-background:new 0 0 240 208;" xml:space="preserve">
<style type="text/css">
	.st0{opacity:0.22;fill:#55B436;}
	.st1{opacity:0.49;}
	.st2{opacity:0.24;fill:#1A3C7C;enable-background:new    ;}
	.st3{fill:#FFFFFF;}
	.st4{fill:#13260B;}
	.st5{fill:#4B992B;}
	.st6{opacity:0.22;}
	.st7{fill:#387320;}
	.st8{opacity:0.35;}
</style>
<path class="st0" d="M197.5,158.5c0,0-6.6-24.4,1.9-36.1s7.3-32.7-17.7-40.1c-25-7.4-15.4-29.8-34.5-41.2s-42.5-5.8-54,17.7
	s-38.5,5.6-50,23.4c-9.7,15.1,11.8,22.6,7.9,34.2s-13.8,30.4-6.3,42L197.5,158.5L197.5,158.5z"/>
<g class="st1">
	<path class="st2" d="M118.8,125.8v5.2h-0.9v5.2h-10v5.1h-1.4v5.2h2.3v5.1h-0.9v5.2H53.2v-5.2h0.9v-5.1h-2.3v-5.2h1.4v-5.1h10V131h1
		v-5.2h-2.4v-5.1h1.4v-5.2h54.7v5.2h-1.4v5.1H118.8z"/>
	<path class="st3" d="M66.6,115.8h54.6v5.2H66.6V115.8z"/>
	<path class="st3" d="M65.2,120.9h54.6v5.2H65.2V120.9z"/>
	<path class="st3" d="M67.5,126.1h54.6v5.2H67.5V126.1z"/>
	<path class="st3" d="M66.6,131.2h54.6v5.2H66.6V131.2z M56.6,136.4h54.6v5.2H56.6V136.4z M55.2,141.6h54.6v5.2H55.2V141.6z"/>
	<path class="st3" d="M57.5,146.7h54.6v5.2H57.5V146.7z M56.6,151.9h54.6v5.2H56.6V151.9z"/>
	<path class="st4" d="M121.2,121.7H66.6c-0.4,0-0.8-0.3-0.8-0.8v-5.2c0-0.4,0.3-0.8,0.8-0.8h54.6c0.4,0,0.8,0.3,0.8,0.8v5.2
		C122,121.3,121.6,121.7,121.2,121.7z M67.3,120.2h53.1v-3.7H67.3C67.3,116.5,67.3,120.2,67.3,120.2z"/>
	<path class="st4" d="M119.8,126.8H65.2c-0.4,0-0.8-0.3-0.8-0.8v-5.2c0-0.4,0.3-0.8,0.8-0.8h54.6c0.4,0,0.8,0.3,0.8,0.8v5.2
		C120.6,126.5,120.2,126.8,119.8,126.8z M65.9,125.3H119v-3.7H65.9V125.3z"/>
	<path class="st4" d="M122.2,132H67.5c-0.4,0-0.8-0.3-0.8-0.8V126c0-0.4,0.3-0.8,0.8-0.8h54.6c0.4,0,0.8,0.3,0.8,0.8v5.2
		C122.9,131.7,122.6,132,122.2,132z M68.3,130.5h53.1v-3.7H68.3C68.3,126.8,68.3,130.5,68.3,130.5z"/>
	<path class="st4" d="M121.2,137.2H66.6c-0.4,0-0.8-0.3-0.8-0.8v-5.2c0-0.4,0.3-0.8,0.8-0.8h54.6c0.4,0,0.8,0.3,0.8,0.8v5.2
		C122,136.8,121.6,137.2,121.2,137.2z M67.3,135.7h53.1V132H67.3C67.3,132,67.3,135.7,67.3,135.7z"/>
	<path class="st4" d="M111.2,142.3H56.6c-0.4,0-0.8-0.3-0.8-0.8v-5.2c0-0.4,0.3-0.8,0.8-0.8h54.6c0.4,0,0.8,0.3,0.8,0.8v5.2
		C112,142,111.6,142.3,111.2,142.3z M57.3,140.8h53.1v-3.7H57.3C57.3,137.1,57.3,140.8,57.3,140.8z"/>
	<path class="st4" d="M109.8,147.5H55.2c-0.4,0-0.8-0.3-0.8-0.8v-5.2c0-0.4,0.3-0.8,0.8-0.8h54.6c0.4,0,0.8,0.3,0.8,0.8v5.2
		C110.6,147.1,110.2,147.5,109.8,147.5z M55.9,146H109v-3.7H55.9V146z"/>
	<path class="st4" d="M112.2,152.6H57.5c-0.4,0-0.8-0.3-0.8-0.8v-5.2c0-0.4,0.3-0.8,0.8-0.8h54.6c0.4,0,0.8,0.3,0.8,0.8v5.2
		C112.9,152.3,112.6,152.6,112.2,152.6z M58.3,151.1h53.1v-3.7H58.3C58.3,147.4,58.3,151.1,58.3,151.1z"/>
	<path class="st4" d="M111.2,157.8H56.6c-0.4,0-0.8-0.3-0.8-0.8v-5.2c0-0.4,0.3-0.8,0.8-0.8h54.6c0.4,0,0.8,0.3,0.8,0.8v5.2
		C112,157.5,111.6,157.8,111.2,157.8z M57.3,156.3h53.1v-3.7H57.3C57.3,152.6,57.3,156.3,57.3,156.3z"/>
	<path class="st5" d="M82.5,115.8h24.7v20.6H82.5V115.8z M73.9,136.4H94V157H73.9V136.4z"/>
	<path class="st4" d="M107.2,137.2H82.5c-0.4,0-0.8-0.3-0.8-0.8v-20.6c0-0.4,0.3-0.8,0.8-0.8h24.7c0.4,0,0.8,0.3,0.8,0.8v20.6
		C108,136.8,107.6,137.2,107.2,137.2z M83.2,135.7h23.2v-19.1H83.2V135.7z"/>
	<path class="st4" d="M93.9,157.8h-20c-0.4,0-0.8-0.3-0.8-0.8v-20.6c0-0.4,0.3-0.8,0.8-0.8H94c0.4,0,0.8,0.3,0.8,0.8V157
		C94.7,157.5,94.3,157.8,93.9,157.8z M74.6,156.3h18.6v-19.1H74.6C74.6,137.2,74.6,156.3,74.6,156.3z"/>
	<circle class="st3" cx="94.4" cy="126.1" r="7.7"/>
	<path class="st4" d="M95.4,127.2h-1.5c0,0.4,0.1,0.7,0.3,0.9c0.2,0.2,0.6,0.3,1.1,0.3c0.3,0,0.6,0,0.9-0.1l0.2,1.3
		c-0.4,0.1-0.9,0.1-1.3,0.1c-0.9,0-1.6-0.2-2.1-0.7s-0.8-1.1-0.8-1.9h-0.8v-0.8h0.8v-0.6h-0.8V125h0.8c0.1-0.8,0.4-1.4,0.9-1.9
		c0.5-0.4,1.3-0.7,2.1-0.7c0.3,0,0.7,0,1.1,0.1l-0.2,1.3c-0.3-0.1-0.5-0.1-0.8-0.1c-0.4,0-0.8,0.1-1,0.3s-0.4,0.5-0.4,0.9h1.5v0.8
		h-1.5v0.6h1.5L95.4,127.2L95.4,127.2z"/>
	<circle class="st3" cx="83.9" cy="146.7" r="7.7"/>
	<path class="st4" d="M84.7,148h-1.5c0,0.4,0.1,0.7,0.3,0.9c0.2,0.2,0.6,0.3,1.1,0.3c0.3,0,0.6,0,0.9-0.1l0.2,1.3
		c-0.4,0.1-0.9,0.1-1.3,0.1c-0.9,0-1.6-0.2-2.1-0.7s-0.8-1.1-0.8-1.9h-0.8v-0.8h0.8v-0.6h-0.8v-0.8h0.8c0.1-0.8,0.4-1.4,0.9-1.9
		c0.5-0.4,1.3-0.7,2.1-0.7c0.3,0,0.7,0,1.1,0.1l-0.2,1.3c-0.3-0.1-0.5-0.1-0.8-0.1c-0.4,0-0.8,0.1-1,0.3s-0.4,0.5-0.4,0.9h1.5v0.8
		h-1.5v0.6h1.5L84.7,148L84.7,148z"/>
</g>
<path class="st3" d="M149.6,91.2c0.4,9.8-3.9,18.7-10.8,24.4c-3.3,2.8-5.4,6.8-5.4,11.1h-27c0-4.3-2-8.3-5.3-11
	c-6.7-5.5-10.9-13.8-10.9-23c0-17.1,14.4-30.8,31.7-29.7C136.8,63.9,148.9,76.2,149.6,91.2z"/>
<g class="st6">
	<path class="st7" d="M138.8,115.6c-3.4,2.8-5.4,6.8-5.4,11.1H129c0-4.3,2-8.4,5.4-11.1c7-5.7,11.3-14.6,10.8-24.4
		c-0.7-14.9-12.7-27.2-27.5-28.3c1.3-0.1,2.7-0.1,4.1,0c15,1,27.1,13.3,27.8,28.3C150,101,145.7,109.8,138.8,115.6L138.8,115.6z"/>
</g>
<path class="st5" d="M132,126.7c2.1,0,3.9,1.7,3.9,3.9c0,1.1-0.4,2-1.1,2.7s-1.7,1.1-2.7,1.1h-24.3c-2.1,0-3.9-1.7-3.9-3.9
	c0-1.1,0.4-2,1.1-2.7s1.7-1.1,2.7-1.1C107.7,126.7,132,126.7,132,126.7z M132,134.5c2.1,0,3.9,1.7,3.9,3.9c0,1.1-0.4,2-1.1,2.7
	c-0.7,0.7-1.7,1.1-2.7,1.1h-24.3c-2.1,0-3.9-1.7-3.9-3.9c0-1.1,0.4-2,1.1-2.7s1.7-1.1,2.7-1.1H132z M132,142.2
	c2.1,0,3.9,1.7,3.9,3.9c0,1.1-0.4,2-1.1,2.7s-1.7,1.1-2.7,1.1h-24.3c-2.1,0-3.9-1.7-3.9-3.9c0-1.1,0.4-2,1.1-2.7s1.7-1.1,2.7-1.1
	H132z"/>
<g class="st6">
	<path class="st7" d="M135.9,130.6c0,1.1-0.4,2-1.1,2.7s-1.7,1.1-2.7,1.1h-4.3c1.1,0,2-0.4,2.7-1.1c0.7-0.7,1.1-1.7,1.1-2.7
		c0-2.1-1.7-3.9-3.9-3.9h4.3C134.1,126.7,135.9,128.5,135.9,130.6L135.9,130.6z"/>
</g>
<g class="st6">
	<path class="st7" d="M135.9,138.4c0,1.1-0.4,2-1.1,2.7c-0.7,0.7-1.7,1.1-2.7,1.1h-4.3c1.1,0,2-0.4,2.7-1.1c0.7-0.7,1.1-1.7,1.1-2.7
		c0-2.1-1.7-3.9-3.9-3.9h4.3C134.1,134.5,135.9,136.2,135.9,138.4L135.9,138.4z"/>
</g>
<g class="st6">
	<path class="st7" d="M135.9,146.1c0,1.1-0.4,2-1.1,2.7s-1.7,1.1-2.7,1.1h-4.3c1.1,0,2-0.4,2.7-1.1c0.7-0.7,1.1-1.7,1.1-2.7
		c0-2.1-1.7-3.9-3.9-3.9h4.3C134.1,142.2,135.9,144,135.9,146.1L135.9,146.1z"/>
</g>
<path class="st7" d="M0,0"/>
<path class="st4" d="M133.4,127.5h-27c-0.4,0-0.8-0.3-0.8-0.8c0-4.1-1.8-7.9-5-10.5c-7.1-5.8-11.2-14.4-11.2-23.6
	c0-8.4,3.5-16.5,9.6-22.2c6.2-5.8,14.3-8.7,22.9-8.2c15.3,1,27.8,13.7,28.5,29c0.4,9.7-3.6,18.8-11.1,25c-3.3,2.7-5.1,6.5-5.1,10.5
	C134.1,127.1,133.8,127.5,133.4,127.5L133.4,127.5z M107.1,126h25.5c0.2-4.2,2.2-8.2,5.7-11c7.1-5.9,11-14.5,10.5-23.8
	c-0.7-14.5-12.6-26.6-27.1-27.6c-8.1-0.5-15.8,2.3-21.7,7.8s-9.2,13.1-9.2,21.1c0,8.7,3.9,16.9,10.7,22.5
	C104.9,117.8,106.9,121.8,107.1,126z"/>
<path class="st4" d="M132,135.2c-0.4,0-0.8-0.3-0.8-0.8s0.3-0.8,0.8-0.8c0.8,0,1.6-0.3,2.2-0.9c0.6-0.6,0.9-1.4,0.9-2.2
	c0-1.7-1.4-3.1-3.1-3.1h-24.3c-0.8,0-1.6,0.3-2.2,0.9c-0.6,0.6-0.9,1.4-0.9,2.2c0,1.7,1.4,3.1,3.1,3.1c0.4,0,0.8,0.3,0.8,0.8
	s-0.3,0.8-0.8,0.8c-2.5,0-4.6-2.1-4.6-4.6c0-1.2,0.5-2.4,1.4-3.3c0.9-0.9,2-1.3,3.3-1.3H132c2.5,0,4.6,2.1,4.6,4.6
	c0,1.2-0.5,2.4-1.3,3.3C134.4,134.8,133.2,135.2,132,135.2L132,135.2z"/>
<path class="st4" d="M132,143c-0.4,0-0.8-0.3-0.8-0.8s0.3-0.8,0.8-0.8c0.8,0,1.6-0.3,2.2-0.9c0.6-0.6,0.9-1.4,0.9-2.2
	c0-1.7-1.4-3.1-3.1-3.1h-24.3c-0.8,0-1.6,0.3-2.2,0.9c-0.6,0.6-0.9,1.4-0.9,2.2c0,1.7,1.4,3.1,3.1,3.1c0.4,0,0.8,0.3,0.8,0.8
	s-0.3,0.8-0.8,0.8c-2.5,0-4.6-2.1-4.6-4.6c0-1.2,0.5-2.4,1.4-3.3c0.9-0.9,2-1.3,3.3-1.3H132c2.5,0,4.6,2.1,4.6,4.6
	c0,1.2-0.5,2.4-1.3,3.3C134.4,142.5,133.2,143,132,143z"/>
<path class="st4" d="M132,150.7h-24.3c-2.5,0-4.6-2.1-4.6-4.6c0-1.2,0.5-2.4,1.4-3.3c0.9-0.9,2-1.3,3.3-1.3H132
	c2.5,0,4.6,2.1,4.6,4.6c0,1.2-0.5,2.4-1.3,3.3C134.4,150.3,133.2,150.7,132,150.7z M107.7,143c-0.8,0-1.6,0.3-2.2,0.9
	c-0.6,0.6-0.9,1.4-0.9,2.2c0,1.7,1.4,3.1,3.1,3.1H132c0.8,0,1.6-0.3,2.2-0.9c0.6-0.6,0.9-1.4,0.9-2.2c0-1.7-1.4-3.1-3.1-3.1H107.7
	L107.7,143z"/>
<path class="st4" d="M122.3,158.6h-4.9c-4,0-7.3-3.3-7.3-7.3c0-1.1,0.9-1.9,1.9-1.9h15.6c1.1,0,1.9,0.9,1.9,1.9c0,2-0.8,3.8-2.1,5.2
	C126.1,157.8,124.2,158.6,122.3,158.6z M112,150.8c-0.2,0-0.4,0.2-0.4,0.4c0,3.2,2.6,5.8,5.8,5.8h4.9c1.5,0,3-0.6,4.1-1.7
	c1.1-1.1,1.7-2.6,1.7-4.1c0-0.2-0.2-0.4-0.4-0.4H112z"/>
<path class="st5" d="M125.5,104.1c-1.6-11.2,13.1-7.7,13.1-7.7s-2.1,7.6-6.6,9.4c-3.5,1.3-6.5-1.5-6.5-1.5S125.5,104.1,125.5,104.1z
	"/>
<g class="st8">
	<path class="st3" d="M138.6,96.3c0,0-2.1,7.6-6.6,9.4c-3.5,1.3-6.5-1.5-6.5-1.5V104c-0.2-1.3-0.2-2.5,0.1-3.4
		c0,0.3,0.1,0.7,0.1,1.1v0.2c0,0,2.9,2.8,6.5,1.5c3-1.1,4.9-4.8,5.8-7.1H138.6z"/>
</g>
<path class="st5" d="M102.3,102.5c0,0,14.7-3.5,13.2,7.6v0.3c0,0-2.9,2.8-6.5,1.5C104.3,110.1,102.3,102.5,102.3,102.5z"/>
<g class="st8">
	<path class="st3" d="M115.4,110.1v0.3c0,0-2.9,2.8-6.5,1.5c-4.6-1.7-6.6-9.4-6.6-9.4s0.3-0.1,0.8-0.1c1,2.4,2.9,6,5.9,7.2
		c3.5,1.4,6.5-1.5,6.5-1.5v-0.3v-0.3C115.6,108.2,115.6,109.1,115.4,110.1z"/>
</g>
<path class="st5" d="M128.5,86.3c0,8.1-8.2,8.5-8.2,8.5s-9.1,0.2-9.1-10.8c0-5.2,4.5-12.2,9.1-14.9
	C120.2,69.1,128.5,76.5,128.5,86.3z"/>
<g class="st8">
	<path class="st3" d="M120,92.5c-2.7-0.9-6.4-3.3-6.4-10.4c0-4.2,3-9.7,6.5-13c-4.6,2.7-9.1,9.7-9.1,14.9c0,10.1,7.7,10.8,8.9,10.8
		L120,92.5L120,92.5z"/>
</g>
<path class="st4" d="M120.2,127.1c-0.4,0-0.8-0.3-0.8-0.8V95.8c0-0.4,0.3-0.8,0.8-0.8s0.8,0.3,0.8,0.8v30.5
	C121,126.7,120.6,127.1,120.2,127.1z"/>
<path class="st4" d="M120.2,95.6c-0.5,0-4-0.1-6.7-2.7c-2.1-2-3.1-5-3.1-8.9c0-5.3,4.5-12.7,9.5-15.6c0.3-0.2,0.6-0.1,0.9,0.1
	c0.3,0.3,8.5,7.8,8.5,17.8C129.2,95,120.3,95.6,120.2,95.6z M120.1,70c-4.3,2.8-8.3,9.4-8.3,14c0,3.4,0.9,6,2.7,7.8
	c2.3,2.3,5.4,2.3,5.7,2.3c0.5,0,7.5-0.6,7.5-7.8C127.7,78.2,121.7,71.7,120.1,70z"/>
<path class="st4" d="M120.2,95.1c-0.4,0-0.7-0.3-0.7-0.6c-0.1-0.4-1.5-10.8-0.4-19.2c0.1-0.4,0.4-0.7,0.8-0.6s0.7,0.4,0.6,0.8
	c-1,8.2,0.4,18.7,0.4,18.8c0.1,0.4-0.2,0.8-0.6,0.8C120.3,95.1,120.2,95.1,120.2,95.1z M120.2,120.1c-0.4,0-0.7-0.3-0.7-0.7
	c0,0-0.3-4.5-4.6-8.8c-2.1-2.1-4.8-3.9-8.2-5.2c-0.4-0.2-0.6-0.6-0.4-1s0.6-0.6,1-0.4c3.5,1.4,6.4,3.3,8.6,5.6c4.7,4.7,5,9.6,5,9.8
	C121,119.8,120.6,120.1,120.2,120.1z"/>
<path class="st4" d="M110.9,113c-0.7,0-1.5-0.1-2.3-0.4c-4.9-1.9-7-9.5-7.1-9.9c-0.1-0.2,0-0.4,0.1-0.6s0.3-0.3,0.5-0.3
	c0.3-0.1,8.2-1.9,12.1,1.6c1.7,1.6,2.4,3.9,2,6.9v0.2c0,0.2-0.1,0.4-0.2,0.5C115.8,111,113.7,113,110.9,113z M103.2,103
	c0.6,1.9,2.6,6.8,5.9,8.1c2.6,1,4.9-0.6,5.5-1.1c0.3-2.5-0.2-4.3-1.5-5.5C110.5,102.1,105.2,102.7,103.2,103z M120.2,115
	c-0.5,0-0.8-0.4-0.7-0.8c0-0.2,0.5-5.6,5.5-10.7c2.3-2.4,5.2-4.3,8.6-5.7c0.4-0.2,0.8,0,1,0.4s0,0.8-0.4,1c-3.2,1.3-6,3.1-8.1,5.3
	c-4.6,4.7-5.1,9.7-5.1,9.8C120.9,114.8,120.6,115,120.2,115L120.2,115z"/>
<path class="st4" d="M130,106.8c-2.8,0-4.9-1.9-5-2s-0.2-0.3-0.2-0.4v-0.2c-0.4-3,0.2-5.3,1.9-6.9c3.9-3.5,11.8-1.7,12.1-1.6
	c0.2,0,0.4,0.2,0.5,0.3c0.1,0.2,0.1,0.4,0.1,0.6c-0.1,0.3-2.2,8-7.1,9.9C131.5,106.7,130.7,106.8,130,106.8z M126.2,103.9
	c0.7,0.5,2.9,2.1,5.5,1.1c3.3-1.3,5.3-6.2,5.9-8.1c-2-0.3-7.3-1-10,1.4C126.4,99.5,125.9,101.4,126.2,103.9z"/>
<g>
	<path class="st5" d="M120.2,59c-0.8,0-1.5-0.7-1.5-1.5V47c0-0.8,0.7-1.5,1.5-1.5s1.5,0.7,1.5,1.5v10.5C121.7,58.3,121,59,120.2,59z
		"/>
</g>
<g>
	<path class="st5" d="M99.3,64.6c-0.5,0-1-0.3-1.3-0.8l-5.2-9.1c-0.4-0.7-0.2-1.6,0.5-2s1.6-0.2,2,0.5l5.2,9.1
		c0.4,0.7,0.2,1.6-0.5,2C99.8,64.5,99.6,64.6,99.3,64.6z"/>
</g>
<g>
	<path class="st5" d="M84,79.9c-0.3,0-0.5-0.1-0.7-0.2l-9.1-5.2c-0.7-0.4-1-1.3-0.5-2c0.4-0.7,1.3-1,2-0.5l9.1,5.2
		c0.7,0.4,1,1.3,0.5,2C85.1,79.6,84.6,79.9,84,79.9z"/>
</g>
<g>
	<path class="st5" d="M78.5,100.7H68c-0.8,0-1.5-0.7-1.5-1.5s0.7-1.5,1.5-1.5h10.5c0.8,0,1.5,0.7,1.5,1.5S79.3,100.7,78.5,100.7z"/>
</g>
<g>
	<path class="st4" d="M37.3,159.2h-1.5c-0.4,0-0.8-0.3-0.8-0.8s0.3-0.8,0.8-0.8h1.5c0.4,0,0.8,0.3,0.8,0.8S37.7,159.2,37.3,159.2z"
		/>
</g>
<g>
	<path class="st4" d="M201.3,159.2h-6.9c-0.4,0-0.8-0.3-0.8-0.8s0.3-0.8,0.8-0.8h6.9c0.4,0,0.8,0.3,0.8,0.8S201.7,159.2,201.3,159.2
		z"/>
</g>
<g>
	<path class="st4" d="M188.6,159.2H41.7c-0.4,0-0.8-0.3-0.8-0.8s0.3-0.8,0.8-0.8h146.9c0.4,0,0.8,0.3,0.8,0.8S189,159.2,188.6,159.2
		L188.6,159.2z"/>
</g>
<g>
	<circle class="st3" cx="149.6" cy="82.2" r="26.2"/>
</g>
<g>
	<path class="st4" d="M149.7,108.7c-14.8,0-26.9-12-26.9-26.9s12-26.9,26.9-26.9c14.8,0,26.9,12,26.9,26.9S164.5,108.7,149.7,108.7z
		 M149.7,56.3c-14.1,0-25.6,11.5-25.6,25.6s11.5,25.6,25.6,25.6c14.1,0,25.6-11.5,25.6-25.6S163.8,56.3,149.7,56.3z"/>
</g>
<g>
	<path class="st5" d="M151.8,73.5c-0.1,0-0.2,0-0.3-0.1c-0.1,0-0.2-0.1-0.2-0.2c-0.1-0.1-0.1-0.2-0.2-0.2v-0.3
		c0-0.2,0.1-0.4,0.2-0.5c0.2-0.2,0.5-0.3,0.8-0.2c0.1,0,0.2,0.1,0.2,0.2c0.1,0.1,0.2,0.3,0.2,0.5s-0.1,0.4-0.2,0.5
		c-0.1,0.1-0.2,0.1-0.2,0.2C151.9,73.5,151.9,73.5,151.8,73.5z M151.8,92.5c-0.2,0-0.4-0.1-0.5-0.2s-0.1-0.2-0.2-0.2v-0.3v-0.3
		c0-0.1,0.1-0.2,0.2-0.2c0.1-0.1,0.2-0.1,0.2-0.2c0.2-0.1,0.4-0.1,0.6,0c0.1,0,0.2,0.1,0.2,0.2l0.2,0.2c0,0.1,0.1,0.2,0.1,0.3
		s0,0.2-0.1,0.3c0,0.1-0.1,0.2-0.2,0.2c-0.1,0.1-0.2,0.1-0.2,0.2H151.8z M161.2,83c-0.2,0-0.4-0.1-0.5-0.2l-0.2-0.2
		c0-0.1-0.1-0.2-0.1-0.3c0-0.2,0.1-0.4,0.2-0.5l0.2-0.2c0.3-0.1,0.6,0,0.8,0.2c0.1,0.1,0.2,0.3,0.2,0.5c0,0.1,0,0.2-0.1,0.3
		c0,0.1-0.1,0.2-0.2,0.2C161.6,82.9,161.4,83,161.2,83L161.2,83z M142.3,83c-0.2,0-0.4-0.1-0.5-0.2s-0.2-0.3-0.2-0.5
		c0-0.1,0-0.2,0.1-0.3c0-0.1,0.1-0.2,0.2-0.2c0.2-0.2,0.5-0.3,0.8-0.2c0.1,0,0.2,0.1,0.2,0.2l0.2,0.2v0.3c0,0.2-0.1,0.4-0.2,0.5
		c-0.1,0.1-0.2,0.1-0.2,0.2H142.3L142.3,83z M151.8,84.1c-1,0-1.9-0.8-1.9-1.9s0.8-1.9,1.9-1.9s1.9,0.8,1.9,1.9
		S152.8,84.1,151.8,84.1z M151.8,81.9c-0.2,0-0.4,0.2-0.4,0.4s0.2,0.4,0.4,0.4s0.4-0.2,0.4-0.4S152,81.9,151.8,81.9z"/>
	<path class="st5" d="M151.8,81.9c-0.4,0-0.8-0.3-0.8-0.8v-5.6c0-0.4,0.3-0.8,0.8-0.8s0.8,0.3,0.8,0.8v5.6
		C152.5,81.6,152.2,81.9,151.8,81.9z"/>
	<path class="st5" d="M157.9,83h-5c-0.4,0-0.8-0.3-0.8-0.8s0.3-0.8,0.8-0.8h5c0.4,0,0.8,0.3,0.8,0.8S158.3,83,157.9,83z"/>
	<path class="st5" d="M151.8,97c-8.1,0-14.7-6.6-14.7-14.7c0-0.4,0.3-0.8,0.8-0.8s0.8,0.3,0.8,0.8c0,7.3,5.9,13.2,13.2,13.2
		s13.2-5.9,13.2-13.2c0-7.3-5.9-13.2-13.2-13.2c-4.2,0-8,1.9-10.6,5.3c-0.2,0.3-0.7,0.4-1,0.1s-0.4-0.7-0.1-1.1
		c2.8-3.7,7.1-5.9,11.8-5.9c8.1,0,14.7,6.6,14.7,14.7C166.5,90.4,159.9,97,151.8,97z"/>
	<path class="st5" d="M146.2,74.6h-5.6c-0.4,0-0.8-0.3-0.8-0.8v-5.6c0-0.4,0.3-0.8,0.8-0.8s0.8,0.3,0.8,0.8V73h4.8
		c0.4,0,0.8,0.3,0.8,0.8S146.6,74.6,146.2,74.6z"/>
</g>
</svg>
