<svg version="1.1" id="Layer_1" xmlns="http://www.w3.org/2000/svg" x="0" y="0" viewBox="0 0 240 208" xml:space="preserve"><style>.st1{fill:none;stroke:#13260b;stroke-width:1.5;stroke-linecap:round;stroke-linejoin:round;stroke-miterlimit:10}.st3{opacity:.22;fill:#387320}.st4{fill:#4b992b}.st6{opacity:.35;fill:#fff}.st7{fill:none;stroke:#4b992b;stroke-width:3;stroke-linecap:round;stroke-linejoin:round;stroke-miterlimit:10}</style><path d="M197.5 158.5s-6.6-24.4 1.9-36.1c8.5-11.7 7.3-32.7-17.7-40.1-25-7.4-15.4-29.8-34.5-41.2s-42.5-5.8-54 17.7-38.5 5.6-50 23.4c-9.7 15.1 11.8 22.6 7.9 34.2s-13.8 30.4-6.3 42h152.7z" opacity=".22" fill="#55b436"/><path class="st1" d="M37.3 158.5h-1.5M194.3 158.5h7M41.7 158.5H188.6"/><path d="M149.6 88.9c.5 9.8-3.9 18.7-10.8 24.4-3.4 2.8-5.4 6.8-5.4 11.1h-27c0-4.3-2-8.3-5.3-11.1-6.7-5.4-10.9-13.8-10.9-23 0-17.1 14.4-30.8 31.7-29.7 14.9 1 27 13.3 27.7 28.3z" fill="#fff"/><path class="st3" d="M138.8 113.3c-3.4 2.8-5.4 6.8-5.4 11.1h-4.3c0-4.3 2-8.4 5.4-11.1 7-5.7 11.3-14.6 10.8-24.4-.7-14.9-12.7-27.2-27.5-28.3 1.3-.1 2.7-.1 4.1 0 15 1 27.1 13.3 27.8 28.3.4 9.8-4 18.6-10.9 24.4z"/><path class="st4" d="M132 124.4c2.1 0 3.9 1.7 3.9 3.9 0 1.1-.4 2-1.1 2.7s-1.7 1.1-2.7 1.1h-24.3c-2.1 0-3.9-1.7-3.9-3.9 0-1.1.4-2 1.1-2.7.7-.7 1.7-1.1 2.7-1.1H132zM132 132.2c2.1 0 3.9 1.7 3.9 3.9 0 1.1-.4 2-1.1 2.7-.7.7-1.7 1.1-2.7 1.1h-24.3c-2.1 0-3.9-1.7-3.9-3.9 0-1.1.4-2 1.1-2.7.7-.7 1.7-1.1 2.7-1.1H132zM132 139.9c2.1 0 3.9 1.7 3.9 3.9 0 1.1-.4 2-1.1 2.7s-1.7 1.1-2.7 1.1h-24.3c-2.1 0-3.9-1.7-3.9-3.9 0-1.1.4-2 1.1-2.7.7-.7 1.7-1.1 2.7-1.1H132z"/><path class="st3" d="M135.9 128.3c0 1.1-.4 2-1.1 2.7s-1.7 1.1-2.7 1.1h-4.3c1.1 0 2-.4 2.7-1.1.7-.7 1.1-1.7 1.1-2.7 0-2.1-1.7-3.9-3.9-3.9h4.3c2.2 0 3.9 1.7 3.9 3.9zM135.9 136c0 1.1-.4 2-1.1 2.7-.7.7-1.7 1.1-2.7 1.1h-4.3c1.1 0 2-.4 2.7-1.1.7-.7 1.1-1.7 1.1-2.7 0-2.1-1.7-3.9-3.9-3.9h4.3c2.2.1 3.9 1.8 3.9 3.9zM135.9 143.8c0 1.1-.4 2-1.1 2.7s-1.7 1.1-2.7 1.1h-4.3c1.1 0 2-.4 2.7-1.1.7-.7 1.1-1.7 1.1-2.7 0-2.1-1.7-3.9-3.9-3.9h4.3c2.2 0 3.9 1.7 3.9 3.9z"/><path d="M127.7 147.7c.7 0 1.2.5 1.2 1.2 0 1.8-.7 3.5-1.9 4.6a6.42 6.42 0 01-4.6 1.9h-4.9c-3.6 0-6.6-2.9-6.6-6.6 0-.7.5-1.2 1.2-1.2h15.6z" fill="#373736"/><path class="st1" d="M149.6 88.9c.5 9.8-3.9 18.7-10.8 24.4-3.4 2.8-5.4 6.8-5.4 11.1h-27c0-4.3-2-8.3-5.3-11.1-6.7-5.4-10.9-13.8-10.9-23 0-17.1 14.4-30.8 31.7-29.7 14.9 1 27 13.3 27.7 28.3zM107.8 132.2c-2.1 0-3.9-1.7-3.9-3.9 0-1.1.4-2 1.1-2.7.7-.7 1.7-1.1 2.7-1.1H132c2.1 0 3.9 1.7 3.9 3.9 0 1.1-.4 2-1.1 2.7s-1.7 1.1-2.7 1.1M107.8 139.9c-2.1 0-3.9-1.7-3.9-3.9 0-1.1.4-2 1.1-2.7.7-.7 1.7-1.1 2.7-1.1H132c2.1 0 3.9 1.7 3.9 3.9 0 1.1-.4 2-1.1 2.7-.7.7-1.7 1.1-2.7 1.1M132 139.9c2.1 0 3.9 1.7 3.9 3.9 0 1.1-.4 2-1.1 2.7s-1.7 1.1-2.7 1.1h-24.3c-2.1 0-3.9-1.7-3.9-3.9 0-1.1.4-2 1.1-2.7.7-.7 1.7-1.1 2.7-1.1H132zM122.3 155.5h-4.9c-3.6 0-6.6-2.9-6.6-6.6 0-.7.5-1.2 1.2-1.2h15.6c.7 0 1.2.5 1.2 1.2 0 1.8-.7 3.5-1.9 4.6-1.1 1.2-2.8 2-4.6 2z"/><path class="st4" d="M125.5 101.7c-1.6-11.2 13.1-7.7 13.1-7.7s-2.1 7.6-6.6 9.4c-3.5 1.3-6.5-1.5-6.5-1.5v-.2z"/><path class="st6" d="M138.6 94s-2.1 7.6-6.6 9.4c-3.5 1.3-6.5-1.5-6.5-1.5v-.2c-.2-1.3-.2-2.5.1-3.4 0 .3.1.7.1 1.1v.2s2.9 2.8 6.5 1.5c3-1.1 4.9-4.8 5.8-7.1h.6z"/><path class="st4" d="M102.3 100.1s14.7-3.5 13.2 7.6v.3s-3 2.8-6.5 1.5c-4.6-1.7-6.7-9.4-6.7-9.4z"/><path class="st6" d="M115.5 107.8v.3s-2.9 2.8-6.5 1.5c-4.6-1.7-6.6-9.4-6.6-9.4s.3-.1.8-.1c1 2.4 2.9 6 5.9 7.2 3.5 1.4 6.5-1.5 6.5-1.5v-.3-.3c0 .7 0 1.6-.1 2.6z"/><path class="st4" d="M128.5 84c0 8.1-8.2 8.5-8.2 8.5s-9.1.2-9.1-10.8c0-5.2 4.5-12.2 9.1-14.9-.1 0 8.2 7.4 8.2 17.2z"/><path class="st6" d="M120.1 90.2c-2.7-.9-6.4-3.3-6.4-10.4 0-4.2 3-9.7 6.5-13-4.6 2.7-9.1 9.7-9.1 14.9 0 10.1 7.7 10.8 8.9 10.8v-2.3z"/><path class="st1" d="M120.2 124V93.5M120.2 92.5s-9.1.2-9.1-10.8c0-5.2 4.5-12.2 9.1-14.9 0 0 8.2 7.4 8.2 17.2.1 8.1-8.2 8.5-8.2 8.5zM120.2 92.1s-1.5-10.6-.4-19M120.2 117.1s-.2-4.7-4.8-9.3c-1.9-1.9-4.6-3.8-8.4-5.4"/><path class="st1" d="M115.4 108.1v-.3c1.5-11.1-13.2-7.6-13.2-7.6s2.1 7.6 6.6 9.4c3.7 1.3 6.6-1.5 6.6-1.5zM120.2 112s.4-5.3 5.3-10.2c2-2 4.7-4 8.4-5.5"/><path class="st1" d="M125.5 101.9v-.2c-1.6-11.2 13.1-7.7 13.1-7.7s-2.1 7.6-6.6 9.4c-3.5 1.3-6.5-1.5-6.5-1.5z"/><path class="st7" d="M120.2 55.2V44.7M99.4 60.8l-5.3-9.1M84.1 76.1L75 70.8M78.5 96.9H68M120.2 55.2V44.7M141.1 60.8l5.3-9.1M156.4 76.1l9.1-5.3M162 96.9h10.5"/></svg>