<svg version="1.1" id="Layer_1" xmlns="http://www.w3.org/2000/svg" x="0" y="0" viewBox="0 0 240 208" xml:space="preserve"><style>.st1{stroke:#13260b;stroke-width:1.5;stroke-linecap:round;stroke-linejoin:round;stroke-miterlimit:10}.st1,.st3{fill:none}.st5{fill:#bbe1af}.st6{fill:#fff}.st7{fill:#4b992b}.st8{fill:none;stroke:#fff;stroke-width:2;stroke-linecap:round;stroke-miterlimit:10}</style><path d="M197.5 158.4s-6.6-24.4 1.9-36.1c8.5-11.7 7.3-32.7-17.7-40.1-25-7.4-15.4-29.8-34.5-41.2s-42.5-5.8-54 17.7-38.5 5.6-50 23.4c-9.7 15.1 11.8 22.6 7.9 34.2s-13.8 30.4-6.3 42h152.7z" opacity=".22" fill="#55b436"/><path class="st1" d="M37.3 158.4h-1.5M194.3 158.4h7M41.7 158.4H188.6"/><g opacity=".2"><path class="st3" d="M94.1 93.9h36.2M94.1 99.3h27.4M94 109.6h36.2M94 114.9h27.4M93.9 125.3H130M93.9 130.6h27.3M93.7 141h36.2M93.7 146.3h27.4"/><path d="M138.1 61.3h-16.5v-3.8c0-1.7-1.4-3.1-3.1-3.1h-7.2c0-3.4-2.8-6.2-6.2-6.2-3.4 0-6.2 2.8-6.2 6.2h-7.2c-1.7 0-3.1 1.4-3.1 3.1v3.8H72.1c-1.4 0-2.6 1.2-2.6 2.6v91.4c0 1.4 1.2 2.6 2.6 2.6H138c1.4 0 2.6-1.2 2.6-2.6V63.9c0-1.4-1.1-2.6-2.5-2.6zm-33-4.5c-1.3 0-2.4-1.1-2.4-2.4 0-1.3 1.1-2.4 2.4-2.4 1.3 0 2.4 1.1 2.4 2.4 0 1.3-1.1 2.4-2.4 2.4z" opacity=".73"/></g><path class="st5" d="M142.4 157.9H77.3c-1.7 0-3-1.3-3-3V64.3c0-1.7 1.3-3 3-3h65.1c1.7 0 3 1.3 3 3v90.5c0 1.7-1.4 3.1-3 3.1z"/><path class="st6" d="M142.3 143.2V65.1H77.4v89h53.9z"/><path class="st1" d="M142.4 157.9H77.3c-1.7 0-3-1.3-3-3V64.3c0-1.7 1.3-3 3-3h65.1c1.7 0 3 1.3 3 3v90.5c0 1.7-1.4 3.1-3 3.1z"/><path class="st7" d="M85.4 73.2h49v5h-49z"/><circle class="st7" cx="86.9" cy="89.9" r="7.2"/><circle class="st7" cx="86.7" cy="107.6" r="7.2"/><circle class="st7" cx="86.6" cy="125.2" r="7.2"/><path class="st1" d="M100.9 88.8h36.2M100.9 94.2h27.4M100.8 104.5h36.1M100.8 109.9h27.3M100.6 120.2h36.2M100.6 125.6H128M100.5 135.9h36.2M100.5 141.3h27.4"/><circle class="st7" cx="86.4" cy="142.9" r="7.2"/><g><path class="st8" d="M83.3 89.9l2.2 2.6 5-4.2M83.1 107.6l2.2 2.6 5.1-4.2M83 125.2l2.2 2.7 5-4.2M82.8 142.9l2.2 2.7 5.1-4.2"/></g><path class="st7" d="M127.2 57.5v7.6h-33v-7.6c0-1.7 1.4-3.1 3.1-3.1h7.2c0-3.4 2.8-6.2 6.2-6.2 3.4 0 6.2 2.8 6.2 6.2h7.2c1.7 0 3.1 1.4 3.1 3.1zM110.7 52c-1.3 0-2.4 1.1-2.4 2.4 0 1.3 1.1 2.4 2.4 2.4 1.3 0 2.4-1.1 2.4-2.4-.1-1.3-1.1-2.4-2.4-2.4z"/><path class="st1" d="M127.2 57.5v7.6h-33v-7.6c0-1.7 1.4-3.1 3.1-3.1h7.2c0-3.4 2.8-6.2 6.2-6.2 3.4 0 6.2 2.8 6.2 6.2h7.2c1.7 0 3.1 1.4 3.1 3.1zM110.7 52c-1.3 0-2.4 1.1-2.4 2.4 0 1.3 1.1 2.4 2.4 2.4 1.3 0 2.4-1.1 2.4-2.4-.1-1.3-1.1-2.4-2.4-2.4z"/><circle cx="142" cy="125.7" r="32.7" opacity=".15"/><circle class="st6" cx="148.8" cy="124.8" r="32.7"/><circle class="st1" cx="148.8" cy="124.8" r="32.7"/><g><g id="XMLID_6_"><path class="st5" d="M155.4 137.5c.7-2.6 2.7-4.7 5.2-5.6.7-.2 1.4-.4 2.2-.4 4.4-.2 8.2 3.2 8.5 7.6.1 1.2-.1 2.3-.6 3.4l-5.2-4.7-4 4.4 5.1 4.6c-.9.4-1.9.7-3 .7-4.4.2-8.2-3.2-8.5-7.6 0-.8.1-1.6.3-2.4z"/><path class="st5" d="M142.1 115.5l18.5 16.4c-2.6.9-4.5 3-5.2 5.6L137 121.1c2.5-.9 4.5-3 5.1-5.6z"/><path class="st5" d="M142.4 113.1c0 .8 0 1.6-.2 2.4-.7 2.6-2.6 4.8-5.2 5.6-.7.2-1.4.4-2.2.4-4.4.2-8.2-3.2-8.5-7.6-.1-1.2.1-2.3.6-3.4l5.2 4.7 4-4.4-5.1-4.6c.9-.4 1.9-.7 3-.7 4.4-.3 8.1 3.1 8.4 7.6z"/><g><path class="st1" d="M137 121.1c-.7.2-1.4.4-2.2.4-4.4.2-8.2-3.2-8.5-7.6-.1-1.2.1-2.3.6-3.4l5.2 4.7 4-4.4-5.1-4.6c.9-.4 1.9-.7 3-.7 4.4-.2 8.2 3.2 8.5 7.6 0 .8 0 1.6-.2 2.4-.8 2.6-2.8 4.7-5.3 5.6zM160.6 131.9c.7-.2 1.4-.4 2.2-.4 4.4-.2 8.2 3.2 8.5 7.6.1 1.2-.1 2.3-.6 3.4l-5.2-4.7-4 4.4 5.1 4.6c-.9.4-1.9.7-3 .7-4.4.2-8.2-3.2-8.5-7.6 0-.8 0-1.7.2-2.4.8-2.6 2.8-4.8 5.3-5.6zM155.4 137.5L137 121.1M160.6 131.9l-18.5-16.4"/></g></g><g id="XMLID_5_"><path class="st6" d="M169.3 105.1l-2.3 6.1-2.8.3-14.3 15.8-1.9-1.7 14.3-15.8-.1-2.7 5.7-3.2.7.6z"/><path class="st7" d="M148.6 130.1c1 .9 1.1 2.4.2 3.4L136 147.7c-.9 1-2.4 1.1-3.4.2l-3.2-2.9c-1-.9-1.1-2.4-.2-3.4l12.8-14.2c.9-1 2.4-1.1 3.4-.2l3.2 2.9z"/></g><path class="st1" d="M132.5 147.8l-3.2-2.9c-1-.9-1.1-2.4-.2-3.4l12.8-14.2c.9-1 2.4-1.1 3.4-.2l3.2 2.9c1 .9 1.1 2.4.2 3.4l-12.8 14.2c-.9 1.1-2.4 1.1-3.4.2z"/><path class="st1" d="M149.5 131l2-2.2-1.6-1.5-1.9-1.7-1.6-1.4-2 2.2"/><path class="st1" d="M148 125.6l14.3-15.8-.1-2.7 5.7-3.2.7.6.7.6-2.3 6.1-2.8.3-14.3 15.8M143.3 130.3l-11.6 12.9M145.6 132.4L134 145.2"/></g></svg>