<svg version="1.1" id="Layer_1" xmlns="http://www.w3.org/2000/svg" x="0" y="0" viewBox="0 0 240 208" xml:space="preserve"><style>.st2{fill:#fff}.st3{fill:#4b992b}.st7{fill:#13260b}.st10{opacity:.39}</style><path d="M195.2 158.4s-6.6-24.4 1.9-36.1c8.5-11.7 7.3-32.7-17.7-40.1S164.1 52.4 145 41.1s-42.5-5.8-54 17.7-38.5 5.6-50 23.4c-9.7 15.1 11.8 22.6 7.9 34.2s-13.8 30.4-6.3 42h152.6z" fill="#55b436" opacity=".22"/><path class="st2" d="M178.8 100.5v57.9h-49.9V98.3l2.5 2.2z"/><path class="st2" d="M163.5 141.8s-2.3 16.6-24.3 16.6l24.3-.3v-16.3z"/><path class="st3" d="M161.2 125.3v7.8c0 .4-.3.7-.7.7h-7.8v-8.5h8.5z"/><path class="st3" d="M161.2 117.5v7.8h-16.9v-7.8c0-.4.3-.7.7-.7h15.5c.4 0 .7.3.7.7zM152.8 125.3v8.5H145c-.4 0-.7-.3-.7-.7v-7.8h8.5zM128.9 98.3L97 69.8h54.3c.3 0 .5.1.7.3l32.8 28.5c.8.7.3 1.9-.7 1.9h-52.7l-2.5-2.2z"/><path d="M97 90.8c3.4 0 6.2 2.8 6.2 6.2 0 3.4-2.8 6.2-6.2 6.2-3.4 0-6.2-2.8-6.2-6.2 0-3.4 2.8-6.2 6.2-6.2z" fill="#373736"/><path class="st2" d="M109.9 158.4H84.1c-.5 0-.9-.4-.9-.9v-33c0-.5.4-.9.9-.9h25.7c.5 0 .9.4.9.9v33c.1.5-.3.9-.8.9z"/><path d="M66.6 95.7l12.5-10.6L97 69.8l31.9 28.5v60.2h-19.1c.5 0 .9-.4.9-.9v-33c0-.5-.4-.9-.9-.9H84.1c-.5 0-.9.4-.9.9v33c0 .5.4.9.9.9h-19V97l1.5-1.3zm36.6 1.3c0-3.4-2.8-6.2-6.2-6.2-3.4 0-6.2 2.8-6.2 6.2 0 3.4 2.8 6.2 6.2 6.2 3.4 0 6.2-2.8 6.2-6.2z" fill="#bbe1af"/><path d="M128.9 98.3v4.6L97 74.4 79.1 89.8l-12.5 10.6-1.5 1.3V97l1.5-1.3 12.5-10.6L97 69.8z" opacity=".08"/><path class="st7" d="M61 101.2c-.2 0-.4-.1-.6-.3-.3-.3-.2-.8.1-1.1l36-30.7c.1-.1.3-.2.4-.2h54.3c.5 0 .9.2 1.2.5L185.3 98c.6.5.8 1.3.5 2.1-.3.7-.9 1.2-1.7 1.2h-52.7c-.2 0-.4-.1-.5-.2L97 70.8l-35.5 30.3c-.2.1-.3.1-.5.1zm70.7-1.5h52.4c.2 0 .3-.1.3-.2s.1-.2-.1-.4l-32.8-28.5s-.1-.1-.2-.1H99l32.7 29.2z"/><path class="st7" d="M84.1 159.2h-19c-.4 0-.8-.3-.8-.8V97c0-.4.3-.8.8-.8s.8.3.8.8v60.7h18.3c.4 0 .8.3.8.8s-.4.7-.9.7zM128.9 159.2h-19.1c-.4 0-.8-.3-.8-.8s.3-.8.8-.8h18.3v-13.8c0-.4.3-.8.8-.8s.8.3.8.8v14.5c0 .6-.4.9-.8.9z"/><path class="st7" d="M128.9 146c-.4 0-.8-.3-.8-.8V98.3c0-.4.3-.8.8-.8s.8.3.8.7v47c0 .5-.4.8-.8.8zM109.9 159.2H84.1c-.9 0-1.7-.8-1.7-1.7v-33c0-.9.8-1.7 1.7-1.7h25.7c.9 0 1.7.8 1.7 1.7v33c0 .9-.7 1.7-1.6 1.7zm-25.8-34.8c-.1 0-.2.1-.2.2v33c0 .1.1.2.2.2h25.7c.1 0 .2-.1.2-.2v-33c0-.1-.1-.2-.2-.2H84.1zM97 103.9c-3.8 0-6.9-3.1-6.9-6.9s3.1-6.9 6.9-6.9c3.8 0 6.9 3.1 6.9 6.9s-3.1 6.9-6.9 6.9zm0-12.3c-3 0-5.4 2.4-5.4 5.4s2.4 5.4 5.4 5.4c3 0 5.4-2.4 5.4-5.4s-2.4-5.4-5.4-5.4z"/><path class="st2" d="M144.3 124.5h16.9v1.5h-16.9z"/><path class="st2" d="M152 125.3h1.5v8.5H152z"/><path d="M129.5 99.7v3.2l49.3.1v-2.5.1h-47.6c-.4-.5-1.1-.9-1.7-.9z" fill="#1b4e83" opacity=".19"/><path class="st7" d="M178.8 159.2h-49.9c-.4 0-.8-.3-.8-.8s.3-.8.8-.8H178v-57.1c0-.4.3-.8.8-.8s.8.3.8.8v57.9c0 .5-.4.8-.8.8z"/><path class="st7" d="M160.5 134.5H145c-.8 0-1.4-.6-1.4-1.4v-15.5c0-.8.6-1.4 1.4-1.4h15.5c.8 0 1.4.6 1.4 1.4V133c.1.8-.6 1.5-1.4 1.5zm0-17l-15.5.1.1 7.7v7.8l7.7-.1h7.8l-.1-7.7v-7.8z"/><g class="st10"><path class="st2" d="M117.6 76.2H114c-.2 0-.3-.1-.3-.3v-1.2c0-.2.1-.3.3-.3h3.6c.2 0 .3.1.3.3v1.2c.1.2-.1.3-.3.3z"/></g><path class="st2" d="M123.2 76.2h-3.6c-.2 0-.3-.1-.3-.3v-1.2c0-.2.1-.3.3-.3h3.6c.2 0 .3.1.3.3v1.2c0 .2-.1.3-.3.3zM128.6 76.2H125c-.2 0-.3-.1-.3-.3v-1.2c0-.2.1-.3.3-.3h3.6c.2 0 .3.1.3.3v1.2c0 .2-.1.3-.3.3zM121.3 79h-3.6c-.2 0-.3-.1-.3-.3v-1.2c0-.2.1-.3.3-.3h3.6c.2 0 .3.1.3.3v1.2c.1.2-.1.3-.3.3z"/><g class="st10"><path class="st2" d="M126.7 79h-3.6c-.2 0-.3-.1-.3-.3v-1.2c0-.2.1-.3.3-.3h3.6c.2 0 .3.1.3.3v1.2c.1.2-.1.3-.3.3z"/></g><g class="st10"><path class="st2" d="M128.9 85.1h-3.6c-.2 0-.3-.1-.3-.3v-1.2c0-.2.1-.3.3-.3h3.6c.2 0 .3.1.3.3v1.2c0 .1-.2.3-.3.3z"/></g><g class="st10"><path class="st2" d="M134.4 85.1h-3.6c-.2 0-.3-.1-.3-.3v-1.2c0-.2.1-.3.3-.3h3.6c.2 0 .3.1.3.3v1.2c0 .1-.1.3-.3.3z"/></g><g class="st10"><path class="st2" d="M139.8 85.1h-3.6c-.2 0-.3-.1-.3-.3v-1.2c0-.2.1-.3.3-.3h3.6c.2 0 .3.1.3.3v1.2c0 .1-.1.3-.3.3z"/></g><g class="st10"><path class="st2" d="M132.5 87.9H129c-.2 0-.3-.1-.3-.3v-1.2c0-.2.1-.3.3-.3h3.6c.2 0 .3.1.3.3v1.2c0 .1-.2.3-.4.3z"/></g><g class="st10"><path class="st2" d="M137.9 87.9h-3.6c-.2 0-.3-.1-.3-.3v-1.2c0-.2.1-.3.3-.3h3.6c.2 0 .3.1.3.3v1.2c.1.1-.1.3-.3.3z"/></g><g class="st10"><path class="st2" d="M150.5 92.6h-3.6c-.2 0-.3-.1-.3-.3v-1.2c0-.2.1-.3.3-.3h3.6c.2 0 .3.1.3.3v1.2c0 .1-.1.3-.3.3z"/></g><g class="st10"><path class="st2" d="M156 92.6h-3.6c-.2 0-.3-.1-.3-.3v-1.2c0-.2.1-.3.3-.3h3.6c.2 0 .3.1.3.3v1.2c.1.1-.1.3-.3.3z"/></g><g class="st10"><path class="st2" d="M161.4 92.6h-3.6c-.2 0-.3-.1-.3-.3v-1.2c0-.2.1-.3.3-.3h3.6c.2 0 .3.1.3.3v1.2c.1.1-.1.3-.3.3z"/></g><g class="st10"><path class="st2" d="M154.2 95.4h-3.6c-.2 0-.3-.1-.3-.3v-1.2c0-.2.1-.3.3-.3h3.6c.2 0 .3.1.3.3v1.2c0 .2-.2.3-.3.3z"/></g><g class="st10"><path class="st2" d="M159.6 95.4H156c-.2 0-.3-.1-.3-.3v-1.2c0-.2.1-.3.3-.3h3.6c.2 0 .3.1.3.3v1.2c0 .2-.2.3-.3.3z"/></g><g><circle class="st2" cx="172.9" cy="79" r="33.7"/></g><g><path class="st7" d="M172.9 113.4c-19 0-34.4-15.4-34.4-34.4s15.4-34.4 34.4-34.4S207.3 60 207.3 79s-15.5 34.4-34.4 34.4zm0-67.3C154.7 46.1 140 60.9 140 79s14.8 32.9 32.9 32.9 32.9-14.8 32.9-32.9-14.8-32.9-32.9-32.9z"/></g><g><path class="st7" d="M35 159.2h-1.5c-.4 0-.8-.3-.8-.8s.3-.8.8-.8H35c.4 0 .8.3.8.8s-.4.8-.8.8z"/></g><g><path class="st7" d="M198.9 159.2H192c-.4 0-.8-.3-.8-.8s.3-.8.8-.8h6.9c.4 0 .8.3.8.8s-.3.8-.8.8z"/></g><g><path class="st7" d="M186.3 159.2h-147c-.4 0-.8-.3-.8-.8s.3-.8.8-.8h146.9c.4 0 .8.3.8.8s-.3.8-.7.8z"/></g><g><path fill="#1a3c7c" d="M198 70v4h-.8v4h-7.8v4.1h-1.1v4h1.8v4h-.7v4.1h-42.7v-4.1h.7v-4h-1.8v-4h1.1V78h7.8v-4h.7v-4h-1.8v-4.1h1.1v-4h42.7v4h-1.1V70z" opacity=".24"/><path class="st2" d="M157.1 62.1h42.8v4h-42.8zM156 66.1h42.8v4H156zM157.8 70.1h42.8v4h-42.8zM157.1 74.2h42.8v4h-42.8zM149.3 78.2h42.8v4h-42.8zM148.2 82.3H191v4h-42.8zM150 86.3h42.8v4H150zM149.3 90.3h42.8v4h-42.8z"/><path class="st7" d="M199.9 66.9h-42.8c-.4 0-.8-.3-.8-.8v-4c0-.4.3-.8.8-.8h42.8c.4 0 .8.3.8.8v4c-.1.4-.4.8-.8.8zm-42-1.5h41.3v-2.5h-41.3v2.5z"/><path class="st7" d="M198.8 70.9H156c-.4 0-.8-.3-.8-.8v-4c0-.4.3-.8.8-.8h42.8c.4 0 .8.3.8.8v4c-.1.5-.4.8-.8.8zm-42-1.5H198v-2.5h-41.3v2.5z"/><path class="st7" d="M200.6 74.9h-42.8c-.4 0-.8-.3-.8-.8v-4c0-.4.3-.8.8-.8h42.8c.4 0 .8.3.8.8v4c0 .5-.4.8-.8.8zm-42-1.5h41.3v-2.5h-41.3v2.5z"/><path class="st7" d="M199.9 79h-42.8c-.4 0-.8-.3-.8-.8v-4c0-.4.3-.8.8-.8h42.8c.4 0 .8.3.8.8v4c-.1.4-.4.8-.8.8zm-42-1.5h41.3V75h-41.3v2.5z"/><path class="st7" d="M192 83h-42.8c-.4 0-.8-.3-.8-.8v-4c0-.4.3-.8.8-.8H192c.4 0 .8.3.8.8v4c0 .5-.3.8-.8.8zm-42-1.5h41.3V79H150v2.5z"/><path class="st7" d="M190.9 87h-42.8c-.4 0-.8-.3-.8-.8v-4c0-.4.3-.8.8-.8h42.8c.4 0 .8.3.8.8v4c0 .5-.3.8-.8.8zm-42-1.5h41.3V83h-41.3v2.5z"/><path class="st7" d="M192.8 91.1H150c-.4 0-.8-.3-.8-.8v-4c0-.4.3-.8.8-.8h42.8c.4 0 .8.3.8.8v4c-.1.4-.4.8-.8.8zm-42-1.5H192V87h-41.3v2.6z"/><path class="st7" d="M192 95.1h-42.8c-.4 0-.8-.3-.8-.8v-4c0-.4.3-.8.8-.8H192c.4 0 .8.3.8.8v4c0 .5-.3.8-.8.8zm-42-1.5h41.3v-2.5H150v2.5z"/><path class="st3" d="M169.6 62.1H189v16.1h-19.4zM162.8 78.2h15.7v16.1h-15.7z"/><path class="st7" d="M188.9 79h-19.4c-.4 0-.8-.3-.8-.8V62.1c0-.4.3-.8.8-.8h19.4c.4 0 .8.3.8.8v16.1c0 .4-.4.8-.8.8zm-18.6-1.5h17.9V62.8h-17.9v14.7z"/><path class="st7" d="M178.5 95.1h-15.7c-.4 0-.8-.3-.8-.8V78.2c0-.4.3-.8.8-.8h15.7c.4 0 .8.3.8.8v16.1c0 .5-.4.8-.8.8zm-14.9-1.5h14.2V79h-14.2v14.6z"/><circle class="st2" cx="178.9" cy="70.1" r="6.1"/><path class="st7" d="M179.7 70.9h-1.5c0 .4.1.7.3.9.2.2.6.3 1.1.3.3 0 .6 0 .9-.1l.2 1.3c-.4.1-.9.1-1.3.1-.9 0-1.6-.2-2.1-.7-.5-.5-.8-1.1-.8-1.9h-.8V70h.8v-.6h-.8v-.8h.8c.1-.8.4-1.4.9-1.9.5-.4 1.3-.7 2.1-.7.3 0 .7 0 1.1.1l-.2 1.3c-.3-.1-.5-.1-.8-.1-.4 0-.8.1-1 .3-.2.2-.4.5-.4.9h1.5v.8h-1.5v.6h1.5v1z"/><circle class="st2" cx="170.7" cy="86.3" r="6.1"/><path class="st7" d="M171.5 87.6H170c0 .4.1.7.3.9.2.2.6.3 1.1.3.3 0 .6 0 .9-.1l.2 1.3c-.4.1-.9.1-1.3.1-.9 0-1.6-.2-2.1-.7-.5-.5-.8-1.1-.8-1.9h-.8v-.8h.8v-.6h-.8v-.8h.8c.1-.8.4-1.4.9-1.9.5-.4 1.3-.7 2.1-.7.3 0 .7 0 1.1.1l-.2 1.3c-.3-.1-.5-.1-.8-.1-.4 0-.8.1-1 .3s-.4.7-.4 1.1h1.5v.8H170v.6h1.5v.8z"/></g></svg>